<?xml version="1.0" encoding="UTF-8" standalone="no"?>
<!-- Created with Inkscape (http://www.inkscape.org/) -->
<svg
   xmlns:svg="http://www.w3.org/2000/svg"
   xmlns="http://www.w3.org/2000/svg"
   version="1.0"
   width="1134.2744"
   height="979.20728"
   viewBox="0 0 1134.2744 979.20728"
   id="svg2"
   xml:space="preserve"><defs
   id="defs73" />
	
		<g
   style="display:none"
   id="Hilfslinien_anzeigen">
		</g>
		<g
   id="Land">
			<rect
   width="1133.8455"
   height="978.03369"
   x="0.28979"
   y="0.82349002"
   style="fill:#e0e0e0;fill-rule:evenodd"
   id="rect8" /> 
			<path
   d="M 961.82129,905.21362 L 961.37842,904.71704 C 959.45947,902.67993 958.28467,902.4939 956.20362,900.99878 C 955.39649,900.41821 953.75538,899.93628 953.75538,899.93628 C 953.11866,894.823 949.60548,891.72095 947.51905,887.34448 C 947.11573,886.49927 946.96973,885.4685 946.54884,884.6355 C 946.15773,883.86109 945.39601,883.18384 945.02443,882.40405 C 944.63283,881.58374 944.57472,880.52221 944.19289,879.69507 C 943.8091,878.86402 943.07228,878.12915 942.66848,877.30396 C 941.93166,875.79761 941.21096,873.66431 940.72805,872.04468 C 939.46047,867.79273 938.45168,859.79761 939.06496,855.469 C 939.20558,854.47535 939.68117,853.43043 939.8965,852.44019 C 940.38722,850.18189 940.64211,847.73804 940.58937,845.42749 L 937.95607,844.15308 C 937.17628,845.57203 935.79543,847.32935 934.49123,848.29663 C 933.80275,848.80737 932.8135,849.05151 932.13527,849.57153 C 931.53322,850.03344 930.94093,851.09106 930.33302,851.48462 C 930.04249,851.67261 925.58448,853.17603 924.92872,853.39673 L 922.4336,852.12134 C 922.12696,849.99292 922.44141,847.97925 922.29542,845.90552 C 922.15772,843.95435 921.54151,841.79126 921.18653,839.84937 L 922.98829,837.93726 C 925.07667,839.21265 926.51808,841.04761 928.80909,842.08081 C 931.1919,840.74145 933.61182,838.75806 933.93702,835.8645 C 931.9712,831.21557 927.62159,831.93286 926.03712,828.85229 L 926.03712,826.46118 L 928.67042,825.50464 C 931.26954,826.18189 933.49903,828.27368 935.18409,830.28687 L 937.81739,829.96753 C 936.82667,826.48804 934.98829,822.59058 934.76856,818.97046 C 934.67335,817.40308 935.02833,815.57349 935.0918,813.97681 C 935.16162,812.21216 935.09961,809.81519 935.6001,808.13208 C 936.09131,806.48022 937.47901,804.75269 938.09473,803.03247 C 938.42676,802.10474 938.57373,801.0813 938.92627,800.16382 C 939.66455,798.2395 940.62451,796.68872 941.00537,794.58521 L 939.3418,792.51343 C 935.45459,791.31568 930.89405,793.41675 926.5918,792.83179 C 924.50391,791.12769 922.11328,789.80738 920.07764,788.05103 C 918.75733,786.91187 917.61133,785.59351 916.19678,784.54419 C 914.70703,783.43921 913.04346,782.78345 911.48487,781.83472 C 909.97706,780.91675 908.62159,779.67749 907.18848,778.64722 C 906.48096,778.13892 905.45069,777.64136 904.83252,777.05298 C 903.88818,776.15454 900.94775,771.36206 900.25879,770.04077 C 899.40918,768.41235 899.10693,766.43432 898.31836,764.781 C 896.80127,761.59985 894.20166,758.73705 892.63623,755.53735 C 892.22461,754.69555 892.05078,753.68676 891.66602,752.82739 C 891.27149,751.94702 890.67481,751.15747 890.28028,750.2771 C 889.70069,748.98364 887.95118,742.7522 887.92432,741.51148 C 887.86377,738.73218 889.26416,734.44117 889.58692,731.47046 C 889.81592,729.36401 889.74659,727.20923 890.00294,725.09546 C 890.40187,721.80835 891.08448,718.4773 891.66603,715.21411 L 890.1421,712.66382 C 886.85011,710.86548 882.70362,710.78833 879.19288,709.47583 C 875.56544,708.11987 867.48927,703.92163 864.64063,701.34741 C 863.4834,700.302 861.83643,698.74145 860.89893,697.52221 C 859.48584,695.6853 855.99561,689.30932 854.43116,686.79125 C 853.81007,685.79125 853.27491,684.59057 852.5835,683.65648 C 851.56202,682.27709 850.02881,681.19505 848.9795,679.8308 C 848.4668,679.16478 848.13917,678.22728 847.59425,677.59984 C 846.44191,676.27562 844.70851,675.34691 843.57472,673.93431 C 840.83742,670.52367 838.92872,665.98656 836.92238,662.13988 C 836.52492,661.37816 835.90431,660.68041 835.53615,659.90843 C 834.26076,657.2346 834.17775,654.13499 832.90285,651.46116 C 832.16262,649.90891 830.88771,648.54563 830.13088,646.99876 C 829.68215,646.08128 829.47072,645.04759 829.02199,644.13011 C 828.26564,642.58275 826.99025,641.21947 826.25051,639.66722 C 825.52737,638.15111 824.67483,636.01048 824.17141,634.40745 C 823.34963,631.78977 822.89993,627.61546 822.78567,624.84446 C 822.64065,621.33714 823.57766,617.46995 822.78567,614.00657 C 822.56887,613.05784 821.17337,609.67063 820.70657,608.7468 C 820.31546,607.97239 819.55374,607.29563 819.18216,606.51584 C 818.80667,605.72873 818.77835,604.54416 818.35062,603.80637 C 817.93705,603.0925 816.93216,602.4094 816.41068,601.73459 C 815.37552,600.39621 814.38529,598.41379 813.91605,596.79416 C 813.42289,595.09396 812.91898,592.49924 812.80716,590.73752 C 812.65775,588.39182 813.02249,586.11252 812.668,583.72482 C 812.22415,580.7341 811.14114,577.97726 810.31204,575.11789 C 809.28225,571.56418 808.28518,566.51828 807.8179,562.84543 C 807.33401,559.04611 808.02933,555.22531 807.17093,551.47629 C 806.58988,548.93918 806.17142,546.08078 805.04544,543.72043 C 804.67728,542.94748 804.02786,542.26145 803.6597,541.48898 C 802.89163,539.87863 802.22708,537.91378 801.5806,536.22921 C 800.74662,534.05538 799.55667,530.07491 798.9473,527.78146 C 798.68802,526.80539 798.67337,525.72091 798.3931,524.75363 C 797.67435,522.27316 796.32474,519.13107 795.2056,516.78488 C 794.8306,515.99777 794.11624,515.19748 793.81937,514.39377 C 793.68802,514.03732 793.70658,513.81027 793.6348,513.43772 C 793.32035,511.80881 792.70658,509.96116 792.5723,508.33762 C 792.47855,507.20334 792.80716,505.96457 792.71097,504.83078 C 792.52493,502.64084 791.7847,500.59299 791.74076,498.29709 C 791.62846,492.35227 792.12455,486.11789 793.26517,480.28684 C 793.85062,477.29612 795.18119,474.47971 795.7598,471.52073 C 796.39798,468.25803 796.9556,464.31614 796.86869,461.00169 C 796.34135,459.58274 794.63334,457.8054 793.26517,457.17649 L 789.80081,457.33567 C 788.64505,458.66575 787.21829,459.71946 786.05813,461.00169 C 785.46682,461.6555 785.02639,462.63694 784.39553,463.23314 C 784.19778,463.41966 779.96047,466.06371 779.8218,466.10179 C 778.23928,466.5349 775.60989,466.22825 773.95461,466.15501 C 772.16604,466.07591 768.70363,465.24241 767.20949,464.18919 C 764.38137,462.19554 763.36818,457.90208 761.25051,455.2639 C 758.99221,452.45091 751.75295,445.96556 750.30178,443.62913 C 748.75832,441.14427 749.24807,439.56419 746.14407,436.61595 C 743.397,436.65404 740.83645,439.15404 739.49124,441.39769 C 739.04495,442.14134 738.87454,443.25316 738.38284,443.94798 C 737.67386,444.94847 736.06643,446.072 735.14895,446.9763 C 734.89651,447.22484 734.80227,447.42552 734.50247,447.61351 C 733.78274,448.06517 732.64212,448.17455 731.86868,448.57005 C 730.65872,449.1887 728.38089,450.60618 727.29544,451.4387 C 726.59671,451.97386 726.0596,452.82835 725.35501,453.3513 C 724.98831,453.62327 721.18411,456.00853 720.78177,456.21995 C 718.31497,457.51683 715.26175,457.96116 712.7432,459.24827 C 708.82963,461.24876 706.20756,465.37376 702.7642,468.01389 C 700.13041,470.03342 695.66264,471.79807 692.50834,472.79563 C 688.52738,474.05491 673.2974,474.77952 669.36381,473.59251 C 667.5059,472.13743 667.10649,469.99485 666.22221,467.96116 C 665.1309,465.45139 665.19096,463.12522 665.29838,460.41721 C 665.84721,446.56076 675.83891,447.35617 675.73881,439.3259 L 672.68998,438.36936 C 670.93314,438.99827 669.4893,439.96946 667.83891,440.76047 C 665.98295,441.64963 659.08452,444.56467 657.30571,445.0632 C 652.25591,446.4797 641.58452,444.61789 635.96294,444.74435 C 634.85259,444.76925 633.74712,445.03878 632.63628,445.0632 C 631.41265,445.09054 629.95073,444.75802 628.75591,444.90402 C 626.84038,445.1384 625.53472,446.65353 623.90532,447.29464 L 617.94585,448.57003 C 614.18608,448.66378 609.45171,447.06466 607.96733,443.31026 L 608.79838,440.28243 C 611.88432,438.75167 611.54936,434.66866 615.72856,432.47237 C 619.78325,430.34102 624.29057,431.94258 628.2017,430.24092 L 629.67973,429.17842 C 633.91264,426.13692 634.08354,423.44209 637.21049,420.35908 C 638.5557,419.03291 640.3311,418.18183 641.78373,417.0124 C 644.439,414.87519 647.00297,411.99385 648.71342,409.04316 C 649.64262,407.44013 650.13383,405.50263 651.06938,403.94355 C 651.32182,403.52265 655.78129,397.2497 655.78129,397.2497 C 656.00688,397.03681 657.76615,396.2497 658.13725,395.97431 C 659.29985,395.11201 661.06059,393.40986 662.01811,392.30829 C 664.93071,388.95868 666.98051,384.68817 669.91801,381.31122 C 672.78862,378.01044 676.6226,375.51337 679.481,372.22626 C 680.03471,371.58954 680.44047,370.77851 681.00541,370.15448 C 681.57768,369.52264 682.38871,369.04218 682.94584,368.40106 C 683.56938,367.68426 683.98539,366.72723 684.60893,366.01044 C 685.16606,365.36933 685.97709,364.88935 686.54887,364.25751 C 687.10209,363.64716 687.49223,362.75556 688.07377,362.18573 C 689.63236,360.65887 691.14018,360.6496 692.92436,359.79511 C 693.72758,359.40986 694.46879,358.53632 695.28032,358.20087 C 696.18315,357.82831 697.41655,357.92255 698.32964,357.56366 C 699.08648,357.26581 699.80083,356.48651 700.54693,356.12909 C 701.40728,355.71649 702.45855,355.58466 703.3189,355.17255 C 705.0606,354.33808 706.02447,352.93915 707.47661,351.82587 C 708.13237,351.32294 709.02837,351.04462 709.6939,350.55048 C 710.43511,350.00068 711.03521,349.19501 711.77251,348.63837 C 712.46392,348.11689 713.49907,347.77314 714.12944,347.2038 C 714.6895,346.69745 715.15581,345.72773 715.65337,345.13202 C 719.03862,341.07587 720.35405,339.5036 722.72173,334.66571 C 723.24956,333.5871 723.99468,332.38788 724.38482,331.26581 C 725.06451,329.3122 725.30962,327.19061 726.04791,325.20917 C 726.75396,323.31464 727.66363,322.04706 728.81988,320.42792 C 729.75494,319.11884 730.71539,317.21356 731.86871,316.12421 C 732.60797,315.42548 737.87066,312.20722 738.93707,311.6623 C 740.89117,310.66328 743.36578,310.30146 745.49713,309.85566 C 754.16705,308.04267 768.38141,309.61884 769.56598,320.74677 C 767.51178,320.74042 765.34332,320.508 763.32916,320.10859 L 762.08209,322.81806 L 762.77496,325.04951 C 765.62408,327.82344 774.53375,328.55635 778.43609,328.55635 C 781.82379,328.55635 785.20367,327.65987 788.55328,328.55635 C 789.59967,328.83614 790.90435,329.59932 791.87945,330.09737 C 799.76617,334.12471 796.55035,341.19161 801.02691,345.76876 C 801.84136,346.60177 804.62896,348.2131 805.73882,348.63839 C 806.66216,348.99239 807.72173,349.08859 808.64898,349.43527 C 812.38531,350.83127 818.07134,354.40451 821.53863,355.49191 C 821.7149,355.54709 824.82525,356.11984 825.00299,356.12912 C 828.15485,356.29367 827.91412,354.97971 829.85406,354.21652 C 831.75006,353.47043 833.24859,354.19064 835.25885,352.30392 C 835.51764,350.22628 835.76227,347.68966 835.53619,345.61007 C 835.4273,344.60812 834.99566,343.5837 834.84332,342.58175 C 834.52398,340.48507 834.65045,338.23214 833.87359,336.20626 C 833.56646,335.40597 832.87994,334.59347 832.48736,333.81612 C 831.23297,331.33223 830.27105,328.63936 829.02203,326.16573 C 828.64996,325.42794 827.93463,324.68868 827.63629,323.93428 C 826.89654,322.06172 826.79108,320.09053 825.83453,318.19649 C 824.73346,316.01534 823.16998,313.43331 821.6773,311.50264 C 821.15289,310.82393 820.31255,310.14961 819.87505,309.43037 C 818.89653,307.82246 817.26421,303.57099 816.41069,301.78047 C 815.65434,300.19502 814.27934,298.86104 813.50005,297.31758 C 812.23491,294.8127 811.81939,291.68428 810.58941,289.18916 C 810.20562,288.40986 809.45757,287.73555 809.065,286.9582 C 808.64459,286.12568 808.5152,285.08125 808.09527,284.24873 C 807.70172,283.46992 806.96343,282.79609 806.57037,282.01728 C 806.14996,281.18427 806.02057,280.14033 805.60016,279.30732 C 805.20905,278.53291 804.44782,277.85566 804.07575,277.07636 C 803.68464,276.25556 803.62604,275.19404 803.24372,274.36689 C 802.503,272.76337 801.13825,271.33857 800.33356,269.74482 C 799.89508,268.87617 799.66315,267.90351 799.22467,267.03486 C 798.83746,266.26777 798.20807,265.57685 797.83942,264.80341 C 795.30768,259.49433 797.33991,255.83466 793.54254,250.77802 L 791.6026,251.09736 C 790.63678,252.56367 789.61969,254.00459 788.55328,255.40009 L 785.7818,256.5163 C 781.19586,255.99579 780.44391,252.11005 778.15875,249.0246 C 777.08209,247.57099 775.80816,246.5871 774.97125,244.88105 C 772.74078,241.10615 769.77789,237.3371 767.90289,233.40595 C 766.67828,230.83759 765.99518,227.9704 764.71539,225.43671 C 764.32232,224.6579 763.72223,223.98407 763.32916,223.20526 C 762.9024,222.36053 762.69098,221.30731 762.22027,220.49579 C 761.35259,218.99872 759.85748,217.77362 759.03277,216.19257 C 757.7647,213.76239 756.99713,210.78681 755.98394,208.22382 C 754.95953,205.63105 753.5689,202.92157 752.79644,200.25458 C 752.51568,199.28681 752.50835,198.20038 752.24224,197.22626 C 751.75005,195.42646 750.72027,193.74042 750.16314,191.96649 C 749.54839,190.00848 749.49419,187.85126 748.91558,185.91034 C 748.6646,185.06805 748.00054,184.20477 747.80718,183.36054 C 747.55913,182.27509 747.69536,180.96845 747.52984,179.8537 C 747.37847,178.8327 746.99224,177.84638 746.83697,176.82587 C 746.49468,174.57978 746.55865,172.23651 746.42144,169.97235 C 746.29986,167.96893 745.91167,165.91083 745.86675,163.91571 C 745.76519,159.33661 746.95855,153.7619 746.69829,149.57147 C 746.55034,147.18695 745.49956,145.12958 744.71196,142.93036 C 744.17973,141.44452 743.66704,139.82245 742.9561,138.41474 C 742.56889,137.64765 741.93901,136.95649 741.57036,136.18354 C 741.16509,135.33369 741.00542,134.32392 740.60015,133.47431 C 739.85992,131.92158 738.63091,130.45429 737.68999,129.01142 C 735.94585,126.33759 734.10503,122.50898 733.11626,119.44868 C 731.51323,114.4875 731.86626,107.51387 729.92876,103.19209 C 699.84771,89.85811 674.49956,78.03438 644.39458,64.75654 C 641.5147,63.48652 619.47026,53.40156 618.10405,53.16523 C 615.72319,52.75361 609.92925,53.16547 607.36821,53.16547 L 582.26176,53.16523 L 498.6582,53.16523 L 459.18799,53.16523 C 457.72803,54.26044 456.02588,55.94184 454.45703,56.71699 C 451.27295,58.28999 447.14697,58.58369 443.85986,60.00849 C 443.5874,60.12665 437.94775,64.48383 437.72705,64.65107 C 431.88428,69.07636 426.08203,74.08955 419.62598,77.6081 L 415.47608,79.27656 C 414.09424,79.83198 412.07618,80.88789 410.59278,81.24043 C 407.35108,82.00996 403.99122,82.40742 400.73292,83.11885 C 393.9336,84.60371 378.94874,90.71358 373.32862,94.09444 C 371.15137,95.40401 367.16651,98.29854 365.31202,100.01558 C 362.4214,102.69283 359.89161,106.32491 357.28516,109.36128 C 355.09375,111.45527 351.26221,114.54854 349.63819,116.66816 C 349.57862,116.7458 345.1084,125.09126 345.01221,125.32734 C 343.79053,128.3288 343.50928,131.93208 342.22022,134.89106 L 338.84424,140.53999 C 337.021,143.59004 334.19434,148.86128 333.16065,152.21162 C 332.20215,155.31709 332.10792,158.97285 331.35499,162.16377 C 329.6338,169.45674 325.23829,183.42939 322.31153,190.2458 C 321.27833,192.65107 319.80714,195.07051 318.59669,197.40303 C 315.67042,203.04219 311.29591,211.03291 309.41456,216.76729 C 308.4214,219.79463 307.81251,223.30831 306.58497,226.2209 C 305.35059,229.14961 303.14796,231.81953 301.84547,234.72969 C 300.59278,237.52803 300.11134,241.45528 298.60499,244.04854 L 294.21485,249.11495 C 293.35865,250.10274 292.77393,250.58028 292.01954,251.64766 C 291.83741,251.90547 287.01002,260.42842 286.99122,260.48604 L 286.2212,267.17549 C 285.6753,271.9167 286.01173,276.82588 285.37843,281.49678 L 283.70948,288.73506 C 283.38404,290.14668 283.38551,290.99873 282.87501,292.35469 C 282.47169,293.425 281.97096,293.89864 281.39308,294.88594 L 278.42897,299.94893 C 276.80983,302.50166 274.49269,305.07637 273.11964,307.73506 C 271.71803,310.4499 271.25782,314.43135 269.6504,316.9499 C 267.87403,319.73457 264.20094,321.85469 262.34962,324.61445 C 261.65797,325.6457 261.58985,326.40205 261.10426,327.54463 C 259.42701,331.49043 256.68238,339.35371 254.96437,342.58906 C 253.43458,345.46894 250.94582,347.99873 249.34669,350.85322 C 247.81446,353.5876 247.03077,357.11884 245.35816,359.73261 C 243.67188,362.36786 240.70923,365.16523 238.64503,367.57734 C 238.57594,368.43818 237.90919,377.4416 237.83229,377.69648 C 237.60353,378.45478 233.60841,385.05732 232.97169,386.37617 C 230.00514,392.52168 228.16114,399.2414 225.45265,405.49043 L 222.26051,412.02363 C 221.63795,413.29756 221.44191,414.10468 220.66432,415.29023 C 218.99244,417.83955 216.12379,420.43037 214.11305,422.77949 C 210.59572,426.88935 207.17311,431.08662 203.73976,435.26679 C 201.24098,438.30878 198.20875,443.74482 196.17213,445.9621 C 193.97609,448.35272 190.62355,450.11054 188.25856,452.38398 L 183.97902,457.28828 C 183.1443,458.24433 182.51369,458.66523 181.83888,459.74043 C 181.14039,460.85371 181.02174,461.62666 180.49928,462.83272 C 178.65553,467.08956 175.93409,474.17354 173.59034,477.93917 C 171.05909,482.00606 164.53297,489.07979 161.22901,493.15157 C 159.16505,495.69503 157.00318,498.28927 155.06714,500.92794 C 153.16626,503.51827 151.55127,506.342 149.64966,508.93185 C 147.73853,511.53488 145.31665,513.94796 143.54004,516.62716 C 141.73999,519.34152 140.40137,522.55294 138.74634,525.3757 C 135.71997,530.53683 132.1648,535.58127 128.36548,540.19894 C 123.53736,546.0671 118.01465,551.38986 112.5354,556.64083 L 107.8689,561.11251 C 105.22559,563.14327 101.85401,564.44454 99.1875,566.45284 C 94.33643,570.10714 82.46753,582.74288 79.15942,587.81075 C 77.40478,590.49923 75.69604,594.14034 74.22143,597.02218 C 160.87695,607.20968 247.40869,618.93868 333.9121,630.29269 C 389.73485,637.61984 445.53954,645.15646 501.35302,652.56808 L 508.83202,658.40841 C 511.0869,660.17111 512.10009,660.85909 512.89208,661.74435 C 513.66942,662.613 514.23437,663.6716 515.55224,666.12081 L 527.49365,688.32052 C 527.64062,688.59347 527.8164,689.02072 528.00537,689.25656 L 539.4624,703.54855 C 540.72754,705.12667 541.47461,706.39035 542.33691,708.22628 L 548.77978,721.94552 C 548.92822,722.26144 550.07861,724.80001 550.18408,724.93331 C 552.48437,727.83224 557.59668,733.58468 559.34424,736.47823 C 559.62598,736.94405 562.54199,745.00411 562.92725,746.03145 C 563.14893,746.62325 563.6001,747.49385 563.70264,748.09883 L 567.12647,768.32197 C 567.87745,772.75849 568.17579,777.9748 567.75733,782.41816 C 567.20704,788.25996 565.35596,794.27363 565.05421,800.10517 C 565.00245,801.10078 566.64503,822.86347 566.96974,824.43378 C 567.02003,824.67694 570.68165,835.90497 570.69679,835.93329 C 570.97706,836.45673 577.19777,844.00311 577.96681,844.95819 C 579.93263,847.39813 582.88722,849.612 585.20997,851.74969 C 586.23243,855.08563 588.61476,864.26043 589.88331,866.99237 C 589.95118,867.13885 595.96778,874.14813 596.64112,874.94061 L 619.10792,901.38641 L 616.81202,911.091 C 731.21729,908.7981 847.40234,906.88794 961.82129,905.21362 z "
   style="fill:#fefee9;fill-rule:evenodd"
   id="path10" />
		</g>
		<g
   id="Gewässer">
			<path
   d="M 1009.062,978.85864 L 1009.7471,974.6853 L 1007.9453,972.77319 L 1004.896,973.56958 C 1003.4663,975.1731 1002.9844,977.3352 1001.6689,978.85864 L 996.01904,978.85864 C 998.60644,977.04858 1001.5015,971.24389 1001.4312,968.15063 C 1000.6353,966.43383 999.4707,965.31713 998.38232,963.8479 C 996.86865,961.80444 993.6167,956.49341 993.11621,954.12524 C 992.13574,949.49096 994.7373,945.6604 994.64062,941.21557 C 994.59716,939.24145 993.65185,937.14526 993.53173,935.15893 C 993.40624,933.08813 994.15429,930.45043 993.80907,928.46508 C 993.78173,928.30639 992.82079,926.05053 992.70018,925.75561 C 989.27879,923.99682 985.18016,922.94506 981.47411,921.93041 C 979.61376,921.42113 977.2246,921.0515 975.51464,920.17748 C 974.8413,919.83324 974.05859,919.04516 973.43603,918.58324 C 969.729,915.83324 967.15087,912.53734 964.42724,908.86107 C 963.50097,907.61009 962.81591,906.38841 961.82128,905.21361 L 961.37841,904.71703 C 959.45946,902.67992 958.28466,902.49389 956.20361,900.99877 C 955.39648,900.4182 953.75537,899.93627 953.75537,899.93627 C 953.11865,894.82299 949.60547,891.72094 947.51904,887.34447 C 947.11572,886.49926 946.96972,885.46849 946.54883,884.63549 C 946.15772,883.86108 945.396,883.18383 945.02442,882.40404 C 944.63282,881.58373 944.57471,880.5222 944.19288,879.69506 C 943.80909,878.86401 943.07227,878.12914 942.66847,877.30395 C 941.93165,875.7976 941.21095,873.6643 940.72804,872.04467 C 939.46046,867.79272 938.45167,859.7976 939.06495,855.46899 C 939.20557,854.47534 939.68116,853.43042 939.89649,852.44018 C 940.38721,850.18188 940.6421,847.73803 940.58936,845.42748 L 937.95606,844.15307 C 937.17627,845.57202 935.79542,847.32934 934.49122,848.29662 C 933.80274,848.80736 932.81349,849.0515 932.13526,849.57152 C 931.53321,850.03343 930.94092,851.09105 930.33301,851.48461 C 930.04248,851.6726 925.58447,853.17602 924.92871,853.39672 L 922.43359,852.12133 C 922.12695,849.99291 922.4414,847.97924 922.29541,845.90551 C 922.15771,843.95434 921.5415,841.79125 921.18652,839.84936 L 922.98828,837.93725 C 925.07666,839.21264 926.51807,841.0476 928.80908,842.0808 C 931.19189,840.74144 933.61181,838.75805 933.93701,835.86449 C 931.97119,831.21556 927.62158,831.93285 926.03711,828.85228 L 926.03711,826.46117 L 928.67041,825.50463 C 931.26953,826.18188 933.49902,828.27367 935.18408,830.28686 L 937.81738,829.96752 C 936.82666,826.48803 934.98828,822.59057 934.76855,818.97045 C 934.67334,817.40307 935.02832,815.57348 935.09179,813.9768 C 935.16161,812.21215 935.0996,809.81518 935.60009,808.13207 C 936.0913,806.48021 937.479,804.75268 938.09472,803.03246 C 938.42675,802.10473 938.57372,801.08129 938.92626,800.16381 C 939.66454,798.23949 940.6245,796.68871 941.00536,794.5852 L 939.34179,792.51342 C 935.45458,791.31567 930.89404,793.41674 926.59179,792.83178 C 924.5039,791.12768 922.11327,789.80737 920.07763,788.05102 C 918.75732,786.91186 917.61132,785.5935 916.19677,784.54418 C 914.70702,783.4392 913.04345,782.78344 911.48486,781.83471 C 909.97705,780.91674 908.62158,779.67748 907.18847,778.64721 C 906.48095,778.13891 905.45068,777.64135 904.83251,777.05297 C 903.88817,776.15453 900.94774,771.36205 900.25878,770.04076 C 899.40917,768.41234 899.10692,766.43431 898.31835,764.78099 C 896.80126,761.59984 894.20165,758.73704 892.63622,755.53734 C 892.2246,754.69554 892.05077,753.68675 891.66601,752.82738 C 891.27148,751.94701 890.6748,751.15746 890.28027,750.27709 C 889.70068,748.98363 887.95117,742.75219 887.92431,741.51147 C 887.86376,738.73217 889.26415,734.44116 889.58691,731.47045 C 889.81591,729.364 889.74658,727.20922 890.00293,725.09545 C 890.40186,721.80834 891.08447,718.47729 891.66602,715.2141 L 890.14209,712.66381 C 886.8501,710.86547 882.70361,710.78832 879.19287,709.47582 C 875.56543,708.11986 867.48926,703.92162 864.64062,701.3474 C 863.48339,700.30199 861.83642,698.74144 860.89892,697.5222 C 859.48583,695.68529 855.9956,689.30931 854.43115,686.79124 C 853.81006,685.79124 853.2749,684.59056 852.58349,683.65647 C 851.56201,682.27708 850.0288,681.19504 848.97949,679.83079 C 848.46679,679.16477 848.13916,678.22727 847.59424,677.59983 C 846.4419,676.27561 844.7085,675.3469 843.57471,673.9343 C 840.83741,670.52366 838.92871,665.98655 836.92237,662.13987 C 836.52491,661.37815 835.9043,660.6804 835.53614,659.90842 C 834.26075,657.23459 834.17774,654.13498 832.90284,651.46115 C 832.16261,649.9089 830.8877,648.54562 830.13087,646.99875 C 829.68214,646.08127 829.47071,645.04758 829.02198,644.1301 C 828.26563,642.58274 826.99024,641.21946 826.2505,639.66721 C 825.52736,638.1511 824.67482,636.01047 824.1714,634.40744 C 823.34962,631.78976 822.89992,627.61545 822.78566,624.84445 C 822.64064,621.33713 823.57765,617.46994 822.78566,614.00656 C 822.56886,613.05783 821.17336,609.67062 820.70656,608.74679 C 820.31545,607.97238 819.55373,607.29562 819.18215,606.51583 C 818.80666,605.72872 818.77834,604.54415 818.35061,603.80636 C 817.93704,603.09249 816.93215,602.40939 816.41067,601.73458 C 815.37551,600.3962 814.38528,598.41378 813.91604,596.79415 C 813.42288,595.09395 812.91897,592.49923 812.80715,590.73751 C 812.65774,588.39181 813.02248,586.11251 812.66799,583.72481 C 812.22414,580.73409 811.14113,577.97725 810.31203,575.11788 C 809.28224,571.56417 808.28517,566.51827 807.81789,562.84542 C 807.334,559.0461 808.02932,555.2253 807.17092,551.47628 C 806.58987,548.93917 806.17141,546.08077 805.04543,543.72042 C 804.67727,542.94747 804.02785,542.26144 803.65969,541.48897 C 802.89162,539.87862 802.22707,537.91377 801.58059,536.2292 C 800.74661,534.05537 799.55666,530.0749 798.94729,527.78145 C 798.68801,526.80538 798.67336,525.7209 798.39309,524.75362 C 797.67434,522.27315 796.32473,519.13106 795.20559,516.78487 C 794.83059,515.99776 794.11623,515.19747 793.81936,514.39376 C 793.68801,514.03731 793.70657,513.81026 793.63479,513.43771 C 793.32034,511.8088 792.70657,509.96115 792.57229,508.33761 C 792.47854,507.20333 792.80715,505.96456 792.71096,504.83077 C 792.52492,502.64083 791.78469,500.59298 791.74075,498.29708 C 791.62845,492.35226 792.12454,486.11788 793.26516,480.28683 C 793.85061,477.29611 795.18118,474.4797 795.75979,471.52072 C 796.39797,468.25802 796.95559,464.31613 796.86868,461.00168 C 796.34134,459.58273 794.63333,457.80539 793.26516,457.17648 L 789.8008,457.33566 C 788.64504,458.66574 787.21828,459.71945 786.05812,461.00168 C 785.46681,461.65549 785.02638,462.63693 784.39552,463.23313 C 784.19777,463.41965 779.96046,466.0637 779.82179,466.10178 C 778.23927,466.53489 775.60988,466.22824 773.9546,466.155 C 772.16603,466.0759 768.70362,465.2424 767.20948,464.18918 C 764.38136,462.19553 763.36817,457.90207 761.2505,455.26389 C 758.9922,452.4509 751.75294,445.96555 750.30177,443.62912 C 748.75831,441.14426 749.24806,439.56418 746.14406,436.61594 C 743.39699,436.65403 740.83644,439.15403 739.49123,441.39768 C 739.04494,442.14133 738.87453,443.25315 738.38283,443.94797 C 737.67385,444.94846 736.06642,446.07199 735.14894,446.97629 C 734.8965,447.22483 734.80226,447.42551 734.50246,447.6135 C 733.78273,448.06516 732.64211,448.17454 731.86867,448.57004 C 730.65871,449.18869 728.38088,450.60617 727.29543,451.43869 C 726.5967,451.97385 726.05959,452.82834 725.355,453.35129 C 724.9883,453.62326 721.1841,456.00852 720.78176,456.21994 C 718.31496,457.51682 715.26174,457.96115 712.74319,459.24826 C 708.82962,461.24875 706.20755,465.37375 702.76419,468.01388 C 700.1304,470.03341 695.66263,471.79806 692.50833,472.79562 C 688.52737,474.0549 673.29739,474.77951 669.3638,473.5925 C 667.50589,472.13742 667.10648,469.99484 666.2222,467.96115 C 665.13089,465.45138 665.19095,463.12521 665.29837,460.4172 C 665.8472,446.56075 675.8389,447.35616 675.7388,439.32589 L 672.68997,438.36935 C 670.93313,438.99826 669.48929,439.96945 667.8389,440.76046 C 665.98294,441.64962 659.08451,444.56466 657.3057,445.06319 C 652.2559,446.47969 641.58451,444.61788 635.96293,444.74434 C 634.85258,444.76924 633.74711,445.03877 632.63627,445.06319 C 631.41264,445.09053 629.95072,444.75801 628.7559,444.90401 C 626.84037,445.13839 625.53471,446.65352 623.90531,447.29463 L 617.94584,448.57002 C 614.18607,448.66377 609.4517,447.06465 607.96732,443.31025 L 608.79837,440.28242 C 611.88431,438.75166 611.54935,434.66865 615.72855,432.47236 C 619.78324,430.34101 624.29056,431.94257 628.20169,430.24091 L 629.67972,429.17841 C 633.91263,426.13691 634.08353,423.44208 637.21048,420.35907 C 638.55569,419.0329 640.33109,418.18182 641.78372,417.01239 C 644.43899,414.87518 647.00296,411.99384 648.71341,409.04315 C 649.64261,407.44012 650.13382,405.50262 651.06937,403.94354 C 651.32181,403.52264 655.78128,397.24969 655.78128,397.24969 C 656.00687,397.0368 657.76614,396.24969 658.13724,395.9743 C 659.29984,395.112 661.06058,393.40985 662.0181,392.30828 C 664.9307,388.95867 666.9805,384.68816 669.918,381.31121 C 672.78861,378.01043 676.62259,375.51336 679.48099,372.22625 C 680.0347,371.58953 680.44046,370.7785 681.0054,370.15447 C 681.57767,369.52263 682.3887,369.04217 682.94583,368.40105 C 683.56937,367.68425 683.98538,366.72722 684.60892,366.01043 C 685.16605,365.36932 685.97708,364.88934 686.54886,364.2575 C 687.10208,363.64715 687.49222,362.75555 688.07376,362.18572 C 689.63235,360.65886 691.14017,360.64959 692.92435,359.7951 C 693.72757,359.40985 694.46878,358.53631 695.28031,358.20086 C 696.18314,357.8283 697.41654,357.92254 698.32963,357.56365 C 699.08647,357.2658 699.80082,356.4865 700.54692,356.12908 C 701.40727,355.71648 702.45854,355.58465 703.31889,355.17254 C 705.06059,354.33807 706.02446,352.93914 707.4766,351.82586 C 708.13236,351.32293 709.02836,351.04461 709.69389,350.55047 C 710.4351,350.00067 711.0352,349.195 711.7725,348.63836 C 712.46391,348.11688 713.49906,347.77313 714.12943,347.20379 C 714.68949,346.69744 715.1558,345.72772 715.65336,345.13201 C 719.03861,341.07586 720.35404,339.50359 722.72172,334.6657 C 723.24955,333.58709 723.99467,332.38787 724.38481,331.2658 C 725.0645,329.31219 725.30961,327.1906 726.0479,325.20916 C 726.75395,323.31463 727.66362,322.04705 728.81987,320.42791 C 729.75493,319.11883 730.71538,317.21355 731.8687,316.1242 C 732.60796,315.42547 737.87065,312.20721 738.93706,311.66229 C 740.89116,310.66327 743.36577,310.30145 745.49712,309.85565 C 754.16704,308.04266 768.3814,309.61883 769.56597,320.74676 C 767.51177,320.74041 765.34331,320.50799 763.32915,320.10858 L 762.08208,322.81805 L 762.77495,325.0495 C 765.62407,327.82343 774.53374,328.55634 778.43608,328.55634 C 781.82378,328.55634 785.20366,327.65986 788.55327,328.55634 C 789.59966,328.83613 790.90434,329.59931 791.87944,330.09736 C 799.76616,334.1247 796.55034,341.1916 801.0269,345.76875 C 801.84135,346.60176 804.62895,348.21309 805.73881,348.63838 C 806.66215,348.99238 807.72172,349.08858 808.64897,349.43526 C 812.3853,350.83126 818.07133,354.4045 821.53862,355.4919 C 821.71489,355.54708 824.82524,356.11983 825.00298,356.12911 C 828.15484,356.29366 827.91411,354.9797 829.85405,354.21651 C 831.75005,353.47042 833.24858,354.19063 835.25884,352.30391 C 835.51763,350.22627 835.76226,347.68965 835.53618,345.61006 C 835.42729,344.60811 834.99565,343.58369 834.84331,342.58174 C 834.52397,340.48506 834.65044,338.23213 833.87358,336.20625 C 833.56645,335.40596 832.87993,334.59346 832.48735,333.81611 C 831.23296,331.33222 830.27104,328.63935 829.02202,326.16572 C 828.64995,325.42793 827.93462,324.68867 827.63628,323.93427 C 826.89653,322.06171 826.79107,320.09052 825.83452,318.19648 C 824.73345,316.01533 823.16997,313.4333 821.67729,311.50263 C 821.15288,310.82392 820.31254,310.1496 819.87504,309.43036 C 818.89652,307.82245 817.2642,303.57098 816.41068,301.78046 C 815.65433,300.19501 814.27933,298.86103 813.50004,297.31757 C 812.2349,294.81269 811.81938,291.68427 810.5894,289.18915 C 810.20561,288.40985 809.45756,287.73554 809.06499,286.95819 C 808.64458,286.12567 808.51519,285.08124 808.09526,284.24872 C 807.70171,283.46991 806.96342,282.79608 806.57036,282.01727 C 806.14995,281.18426 806.02056,280.14032 805.60015,279.30731 C 805.20904,278.5329 804.44781,277.85565 804.07574,277.07635 C 803.68463,276.25555 803.62603,275.19403 803.24371,274.36688 C 802.50299,272.76336 801.13824,271.33856 800.33355,269.74481 C 799.89507,268.87616 799.66314,267.9035 799.22466,267.03485 C 798.83745,266.26776 798.20806,265.57684 797.83941,264.8034 C 795.30767,259.49432 797.3399,255.83465 793.54253,250.77801 L 791.60259,251.09735 C 790.63677,252.56366 789.61968,254.00458 788.55327,255.40008 L 785.78179,256.51629 C 781.19585,255.99578 780.4439,252.11004 778.15874,249.02459 C 777.08208,247.57098 775.80815,246.58709 774.97124,244.88104 C 772.74077,241.10614 769.77788,237.33709 767.90288,233.40594 C 766.67827,230.83758 765.99517,227.97039 764.71538,225.4367 C 764.32231,224.65789 763.72222,223.98406 763.32915,223.20525 C 762.90239,222.36052 762.69097,221.3073 762.22026,220.49578 C 761.35258,218.99871 759.85747,217.77361 759.03276,216.19256 C 757.76469,213.76238 756.99712,210.7868 755.98393,208.22381 C 754.95952,205.63104 753.56889,202.92156 752.79643,200.25457 C 752.51567,199.2868 752.50834,198.20037 752.24223,197.22625 C 751.75004,195.42645 750.72026,193.74041 750.16313,191.96648 C 749.54838,190.00847 749.49418,187.85125 748.91557,185.91033 C 748.66459,185.06804 748.00053,184.20476 747.80717,183.36053 C 747.55912,182.27508 747.69535,180.96844 747.52983,179.85369 C 747.37846,178.83269 746.99223,177.84637 746.83696,176.82586 C 746.49467,174.57977 746.55864,172.2365 746.42143,169.97234 C 746.29985,167.96892 745.91166,165.91082 745.86674,163.9157 C 745.76518,159.3366 746.95854,153.76189 746.69828,149.57146 C 746.55033,147.18694 745.49955,145.12957 744.71195,142.93035 C 744.17972,141.44451 743.66703,139.82244 742.95609,138.41473 C 742.56888,137.64764 741.939,136.95648 741.57035,136.18353 C 741.16508,135.33368 741.00541,134.32391 740.60014,133.4743 C 739.85991,131.92157 738.6309,130.45428 737.68998,129.01141 C 735.94584,126.33758 734.10502,122.50897 733.11625,119.44867 C 731.51322,114.48749 731.8975,107.51386 729.95951,103.19208 C 729.48246,97.4245 729.28715,91.76386 729.79056,85.97919 C 730.09329,82.49384 730.96634,79.14472 730.89847,75.61933 C 730.81937,71.53681 729.37747,68.36884 728.49661,64.51557 C 728.15384,63.01728 728.31985,61.44794 727.98831,59.9997 C 727.59622,58.28608 726.4927,56.5412 726.04788,54.73993 L 727.15677,52.19037 L 729.0972,53.30536 C 730.98685,55.62177 731.06986,58.80658 731.7305,61.59393 C 732.15335,63.37713 733.07962,64.97796 733.53226,66.69378 C 733.74173,67.48846 733.61869,68.44012 733.80912,69.24383 C 734.2476,71.09149 735.47465,72.85662 735.88822,74.66278 C 736.27201,76.34125 736.20609,78.49896 736.35013,80.2409 C 736.65775,83.95819 736.53079,87.89349 736.99661,91.55706 C 737.12356,92.5534 737.4927,93.59393 737.68997,94.58514 C 738.6177,99.25286 738.15237,101.20428 740.32278,105.9013 C 741.49319,107.16473 744.36282,107.89666 746.0054,107.81365 C 749.08792,106.19549 752.02786,103.93767 754.73685,101.7575 C 756.11087,100.65154 757.31888,99.28387 758.75638,98.25115 C 761.41898,96.33733 765.3013,94.01873 768.31888,92.8322 C 770.05521,92.14909 772.06156,91.71623 773.72415,90.9196 C 774.49563,90.54997 775.17679,89.87614 775.94144,89.48503 C 780.04789,87.38615 785.53617,85.68913 790.07767,85.02263 C 793.17191,84.56853 800.94681,84.49431 803.93705,85.18205 C 805.92094,85.63835 807.85795,86.64787 809.89603,86.93474 C 811.10501,87.10515 812.41654,86.98406 813.63871,87.09416 C 814.74467,87.19401 815.85892,87.49772 816.96439,87.57243 C 822.65091,87.9572 828.81644,87.59929 834.28861,89.64445 C 835.14261,89.96354 835.92972,90.60026 836.78324,90.9196 C 839.65189,91.99162 842.92533,92.37077 845.79203,93.4694 C 849.26762,94.80143 852.66361,96.83268 856.0474,98.41032 C 859.4307,99.98747 863.26127,101.25505 866.44193,103.19206 C 867.21048,103.65959 867.88724,104.32927 868.6597,104.78605 C 871.03177,106.18864 873.6431,107.33219 876.00491,108.76994 C 877.54104,109.70475 878.88626,111.06462 880.44046,111.95817 C 881.21097,112.40104 882.17874,112.6132 882.93509,113.0734 C 883.71585,113.54899 884.36722,114.36246 885.15286,114.82657 C 885.94778,115.29703 886.9761,115.4899 887.78567,115.94205 C 892.4302,118.53653 896.40823,122.73941 900.95169,125.50553 C 901.76907,126.00309 902.74612,126.31168 903.58548,126.78019 C 907.772,129.11832 911.84427,131.12711 916.19681,133.15543 C 917.91165,133.95475 919.53665,134.89371 921.32474,135.54605 C 922.31546,135.90738 923.39896,136.11001 924.37406,136.50235 C 926.95365,137.54068 929.42435,139.1066 931.99662,140.16812 C 933.02445,140.59244 936.62943,142.06167 937.54057,142.2399 C 938.72465,142.47183 940.20073,142.28922 941.42143,142.39932 C 944.7476,142.69937 948.26616,143.32437 951.53862,143.99356 C 954.74174,144.64859 956.65874,146.09048 959.57622,147.1813 C 961.34722,147.84317 963.69194,148.52798 965.53569,148.93423 C 972.52983,150.47427 979.84624,148.93618 986.87944,149.41275 C 987.96001,149.48599 989.29057,149.52066 990.34428,149.73111 C 991.31108,149.92447 992.28764,150.52554 993.25444,150.68765 C 994.44487,150.88736 995.78764,150.71353 996.99663,150.84683 C 999.32475,151.10415 1001.6793,151.87222 1004.065,151.64371 C 1006.8375,151.37857 1015.8248,148.67179 1018.2012,147.18131 C 1019.5127,146.35856 1020.9068,144.73649 1022.0821,143.67447 L 1022.6363,141.12393 C 1021.9805,137.72696 1020.0782,136.55435 1017.2315,135.2272 C 1016.9053,135.07486 1014.7876,133.99478 1014.5982,133.95205 C 1012.4468,133.46816 1009.3707,133.72964 1007.1138,133.63393 C 1002.7803,131.95961 997.76713,133.07753 993.25443,132.03969 C 986.87504,130.5724 977.54447,126.14858 972.60404,121.83901 C 970.65287,120.13686 968.93949,117.86611 967.19925,115.94204 C 965.54837,114.11611 963.55521,111.80727 962.48734,109.56704 C 962.10697,108.76919 961.95755,107.70205 961.65531,106.85757 C 959.9097,101.98233 959.68802,99.84976 959.02201,94.74453 C 958.72709,92.47964 958.72221,90.16225 958.46781,87.89126 C 958.28861,86.29702 957.94486,84.73647 957.91361,83.10952 C 957.8892,81.86587 958.1514,80.51504 958.05228,79.28481 C 958.04056,79.14516 957.41166,76.39956 957.35892,76.25649 C 957.10599,75.57094 955.40628,72.11513 955.00247,71.31557 C 953.62893,68.59438 951.2139,67.6996 949.45901,65.4186 C 948.95901,64.76821 948.70022,63.85073 948.21194,63.18715 C 947.15628,61.75258 945.56497,60.61879 944.47024,59.20253 C 943.42971,57.85634 942.73294,56.18227 941.83694,54.73988 L 937.90969,48.5243 C 936.77053,46.73743 935.30422,45.57752 934.35305,43.58314 C 933.31545,41.40711 931.63235,37.66688 931.58108,35.29579 C 931.45217,29.36049 935.57327,23.87196 938.23342,18.87977 C 939.1011,17.25208 939.6011,15.34925 940.58938,13.77943 C 941.04885,13.04994 941.80569,12.44203 942.25247,11.70765 C 942.78665,10.8307 944.28665,7.07923 944.33157,6.12904 C 944.39553,4.7682 943.6929,2.63539 942.83255,0.81532 L 951.60989,0.81532 C 952.50979,5.01698 952.41262,9.84388 951.67678,13.14222 C 951.13186,15.58607 949.61282,19.0929 948.35061,21.27064 C 945.02102,27.01332 941.60842,26.74476 939.34182,35.13636 L 940.72805,41.19251 C 942.9092,43.16834 943.72024,45.41321 945.30178,47.72718 C 946.6553,49.70863 948.81155,51.35706 950.42971,53.14637 C 952.77981,55.74525 955.49807,58.18958 957.63625,60.9557 C 959.28469,63.089 960.38234,65.53651 961.79396,67.80922 C 962.24562,68.53627 962.94777,69.28261 963.31886,70.04067 C 964.00929,71.45278 964.38136,73.29433 964.7505,74.82192 C 966.5464,82.25551 965.67042,85.77944 965.81349,92.99135 C 965.89894,97.29653 968.8423,109.64321 971.77247,112.75453 C 972.34425,113.36146 973.34815,113.78871 973.99024,114.34877 C 975.13917,115.35121 976.04346,116.45961 977.27003,117.42982 C 977.5586,117.65785 977.69288,117.82728 978.00929,118.01429 C 978.77736,118.46839 979.81984,118.75599 980.64259,119.12952 C 986.16603,121.6366 988.78321,122.50379 994.64064,124.07044 C 997.67726,124.8827 1000.6216,126.11097 1003.6489,126.93958 C 1006.7129,127.77845 1009.896,128.0282 1012.9346,129.01136 L 1013.6275,129.80824 C 1016.8735,130.23842 1020.4199,130.70106 1023.4678,131.40223 C 1025.312,131.82655 1027.5244,132.35267 1029.2886,132.99574 C 1033.0669,134.37318 1036.5264,136.92787 1040.792,136.82094 C 1043.1026,136.76332 1044.1826,135.5724 1046.0581,134.90883 C 1047.9922,134.22426 1050.3135,134.24526 1052.2949,133.63393 C 1053.146,133.37123 1056.9614,131.93764 1057.5615,131.56118 C 1059.1343,130.57461 1059.8042,129.13247 1061.8579,128.37417 C 1063.0952,125.13979 1067.4409,118.09658 1067.9556,115.46401 C 1068.1021,114.71743 1068.1167,109.2311 1067.9556,108.45156 C 1067.603,106.73794 1066.3487,104.99062 1065.4614,103.51089 C 1062.9209,99.27456 1057.0122,90.94546 1056.7305,86.29751 L 1056.9146,83.74722 C 1057.002,82.54312 1057.4019,80.95181 1058.1157,79.92202 L 1060.4722,79.12563 C 1063.6221,81.19936 1067.3228,82.20473 1070.4507,84.38491 C 1073.4556,86.47915 1081.3203,92.19302 1084.3101,93.3102 C 1089.2305,95.14907 1092.1885,94.86049 1097.1992,93.78823 C 1098.1021,93.59487 1099.2017,93.22378 1100.1089,93.15102 C 1102.1426,92.98793 1104.8575,93.28505 1106.9004,93.46938 C 1111.3965,93.87465 1115.835,95.14272 1120.3438,95.54165 C 1122.8228,95.76089 1125.3487,95.63686 1127.8277,95.8605 C 1129.9966,96.0563 1131.9732,96.63931 1134.1109,95.74893 L 1134.1353,978.85708 L 1009.062,978.85864 z "
   style="fill:#c6ecff;fill-rule:evenodd"
   id="path13" />
			<path
   d="M 700.33398,0.84424 C 700.38086,1.82105 701.86377,3.07666 702.4873,3.73853 C 705.16064,6.57569 706.66357,9.5398 707.75341,13.30127 C 708.37939,15.46021 708.41454,17.48901 708.72411,19.67651 C 708.88964,20.84619 710.0952,28.54834 710.24852,29.55786 C 710.70555,32.56177 710.77391,35.92309 711.91161,38.80249 C 712.32323,39.84351 714.68358,43.58325 714.68358,43.58325 C 715.81493,44.78442 719.83739,46.95825 721.33544,48.20581 C 721.97118,48.73511 722.47704,49.64355 723.13769,50.11841 C 724.29101,50.94702 726.32958,53.29883 727.57665,54.09351"
   style="fill:none;fill-rule:evenodd;stroke:#0978ab;stroke-width:2.83459997;stroke-linejoin:round;stroke-miterlimit:3.8636899"
   id="path15" />
			<path
   d="M 996.01904,978.85864 C 998.60644,977.04858 1001.5015,971.24389 1001.4312,968.15063 C 1000.6353,966.43383 999.4707,965.31713 998.38232,963.8479 C 996.86865,961.80444 993.6167,956.49341 993.11621,954.12524 C 992.13574,949.49096 994.7373,945.6604 994.64062,941.21557 C 994.59716,939.24145 993.65185,937.14526 993.53173,935.15893 C 993.40624,933.08813 994.15429,930.45043 993.80907,928.46508 C 993.78173,928.30639 992.82079,926.05053 992.70018,925.75561 C 989.27879,923.99682 985.18016,922.94506 981.47411,921.93041 C 979.61376,921.42113 977.2246,921.0515 975.51464,920.17748 C 974.8413,919.83324 974.05859,919.04516 973.43603,918.58324 C 969.729,915.83324 967.15087,912.53734 964.42724,908.86107 C 963.50097,907.61009 962.81591,906.38841 961.82128,905.21361"
   style="fill:none;fill-rule:evenodd;stroke:#0978ab;stroke-width:0.85039997;stroke-linejoin:round;stroke-miterlimit:3.8636899"
   id="path17" />
			<path
   d="M 1009.062,978.85864 L 1009.7471,974.6853 L 1007.9453,972.77319 L 1004.896,973.56958 C 1003.4663,975.1731 1002.9844,977.3352 1001.6689,978.85864"
   style="fill:none;fill-rule:evenodd;stroke:#0978ab;stroke-width:0.85039997;stroke-linejoin:round;stroke-miterlimit:3.8636899"
   id="path19" />
			<path
   d="M 960.68506,448.09155 L 962.76367,449.6853 L 961.93262,452.23559 C 960.37647,452.3933 957.44239,452.08032 956.11182,451.12036 L 956.52735,448.57007 L 960.68506,448.09155 z "
   style="fill:#fefee9;fill-rule:evenodd;stroke:#0978ab;stroke-width:0.85039997;stroke-linejoin:round;stroke-miterlimit:3.8636899"
   id="path21" />
			<path
   d="M 923.81982,404.26196 C 926.69043,407.18921 928.05468,409.46948 930.19482,412.86889 C 930.64502,413.58325 931.3623,414.35082 931.71972,415.10034 C 932.11034,415.91968 932.16015,416.98999 932.55077,417.80932 C 933.11815,418.99877 934.65868,421.34838 935.46093,422.43139 C 937.03661,424.55834 939.6245,425.93432 941.69775,427.53149 C 942.64111,429.16381 943.02929,431.73852 942.94531,433.58862 C 942.25,436.28784 939.53857,438.573 936.70898,438.52905 C 935.4331,437.45971 934.18798,435.74634 933.52148,434.22534 C 931.7041,433.94165 929.81543,433.79028 927.97705,433.7478 C 922.94482,430.802 924.03027,429.17895 922.01758,424.82202 C 921.51612,423.73559 917.97559,419.30884 917.02832,418.6062 C 916.9292,418.53247 914.54883,417.38354 914.39551,417.33179 C 912.15625,416.57788 909.89112,416.79224 907.60449,416.53443 C 906.52002,416.41236 905.35693,415.948 904.27832,415.89625 C 903.20557,415.84498 902.03027,416.24098 900.95166,416.21559 C 896.04541,416.10084 893.75391,413.65651 888.89404,417.17164 C 887.28271,417.36891 884.69433,416.84547 883.35058,415.89625 C 883.25244,415.62281 882.39257,413.31715 882.38037,413.18727 L 882.79639,409.84059 C 883.12159,408.68629 883.96387,407.52516 884.3667,406.33424 C 884.87988,404.81617 885.08691,402.77613 885.70654,401.39332 C 885.77881,401.23121 887.17675,399.42066 887.36963,399.16187 C 888.12451,398.84205 889.22412,398.21314 890.00293,398.04664 C 891.02051,397.82887 892.28076,398.01783 893.32959,397.88648 C 896.31152,397.51392 900.06543,396.18433 903.03076,397.40845 C 904.00781,397.81177 908.9751,402.13452 909.68359,402.34937 C 911.81005,402.99488 915.20947,403.4021 917.44384,403.62427 C 919.72168,403.85083 921.55029,403.20776 923.81982,404.26196 z "
   style="fill:#fefee9;fill-rule:evenodd;stroke:#0978ab;stroke-width:0.85039997;stroke-linejoin:round;stroke-miterlimit:3.8636899"
   id="path23" />
			<path
   d="M 875.58936,380.67358 L 876.69776,383.38305 L 875.86671,386.41137 L 873.23341,385.29565 C 872.10597,383.9934 871.38624,381.24585 871.56984,379.55835 L 875.58936,380.67358 z "
   style="fill:#fefee9;fill-rule:evenodd;stroke:#0978ab;stroke-width:0.85039997;stroke-linejoin:round;stroke-miterlimit:3.8636899"
   id="path25" />
			<path
   d="M 690.42969,435.1814 L 691.53858,437.89136 L 690.56837,440.91968 L 687.51905,441.55689 L 685.02491,440.28248 C 685.99219,438.9187 688.71094,435.69019 690.42969,435.1814 z "
   style="fill:#fefee9;fill-rule:evenodd;stroke:#0978ab;stroke-width:0.85039997;stroke-linejoin:round;stroke-miterlimit:3.8636899"
   id="path27" />
			<path
   d="M 844.12891,118.97046 C 845.6875,120.97388 847.37159,122.96167 848.84131,125.0271 C 850.89404,127.9126 852.42529,131.3252 854.66211,134.11157 C 857.68945,137.88354 861.96777,142.67871 864.50195,146.70288 C 867.25049,151.06714 870.02685,156.13452 873.09472,160.25024 C 874.11962,161.62524 875.46044,162.79907 876.42138,164.2351 C 877.89452,166.43774 879.10009,168.98559 880.71728,171.08813 C 882.53222,173.44799 885.97949,177.04858 887.36962,179.5354 C 887.79491,180.29614 887.90429,181.33374 888.34032,182.0852 C 888.79784,182.87475 889.63817,183.54418 890.14208,184.31616 C 891.08056,185.7561 891.61327,187.51733 892.63622,188.93921 C 893.19579,189.71655 894.05761,190.37476 894.57665,191.17066 C 894.99462,191.81128 895.16845,192.72486 895.54638,193.40162 C 896.45361,195.02418 897.77929,196.24586 898.87304,197.70435 C 899.91845,199.09937 900.6748,200.83472 901.7832,202.16773 C 902.30859,202.79908 903.0581,203.2898 903.58545,203.92066 C 905.27344,205.93921 906.63379,208.32105 908.15869,210.45533 C 910.19287,213.30299 912.60791,215.91578 914.67236,218.74293 C 915.76025,220.23219 916.60595,221.81275 917.583,223.36451 C 918.51708,224.84791 919.70165,226.26002 920.49364,227.8274 C 923.23827,233.26441 926.79442,249.14283 926.31444,255.08179 C 926.07665,258.0232 925.46923,262.53101 924.51219,265.28199 C 924.27196,265.97242 923.7158,266.67945 923.40428,267.35426 C 922.15867,270.05055 921.13719,272.18385 919.52342,274.68531 C 918.48729,276.29078 917.73338,278.02125 916.75145,279.62574 C 915.78026,281.21363 914.34325,282.43824 913.28661,283.92945 C 912.85106,284.54371 912.63182,285.40845 912.17821,286.00172 C 911.64598,286.69703 910.80321,287.23805 910.23778,287.91481 C 908.52489,289.96266 906.97118,292.22829 905.24803,294.28932 C 902.49364,297.58375 899.16356,300.53395 896.10106,303.53297 C 892.9204,306.64869 890.61131,310.61598 887.64696,313.89332 C 883.04491,318.98121 872.37548,327.26148 865.74901,329.03443 C 863.08885,329.74586 860.62547,329.53199 857.94188,329.77857 C 854.86229,330.06128 848.27147,329.87378 845.37645,328.87476 C 845.27977,328.84156 840.74022,326.31665 840.52586,326.16578 C 839.02391,325.1067 838.37889,323.5857 837.33836,322.18092 C 836.80027,321.45485 836.06297,320.84059 835.53611,320.10865 C 833.69431,317.55006 831.65525,312.75074 830.68552,309.74927 C 829.65378,306.55445 829.21335,301.09302 828.1904,298.11402 C 827.84323,297.1023 827.10886,296.07447 826.66599,295.08668 C 825.58787,292.67945 824.72947,290.05836 823.75583,287.59547 C 822.37155,284.09303 821.18063,280.6482 819.59812,277.23561 C 819.20261,276.38307 818.94968,275.33278 818.48874,274.52614 C 815.86472,269.92751 809.92429,267.93288 807.5405,263.21022 C 806.70896,261.56374 805.25827,256.23366 805.18405,254.44362 C 805.13717,253.30495 805.7236,251.88844 805.60007,250.77809 L 804.86081,249.07887 C 803.24606,245.36354 801.48776,245.07594 798.94724,242.49098 C 796.38279,239.88209 796.15183,235.58668 793.95847,232.60914 C 791.2949,230.84791 788.41208,231.01441 785.50388,230.21852 C 782.94577,229.51735 779.31589,227.43825 778.38962,224.8528 C 777.7988,223.20241 777.57858,221.41481 778.29733,219.69899 C 780.82712,218.11403 784.2944,218.32155 787.16745,217.78688 C 788.186,216.36793 788.73093,213.40016 788.13718,211.73024 L 789.52341,209.33962 C 792.36277,208.3445 795.84079,209.39968 798.53171,210.45534 C 799.56735,208.88649 799.9946,205.90065 799.77976,204.07985 L 801.30369,201.8484 L 804.35252,201.21119 L 806.84764,202.32642 L 808.78807,200.57398 C 808.69627,197.27369 810.7744,194.84058 811.14403,191.6482 C 810.37401,188.74781 807.92284,186.72828 808.37157,183.52027 L 810.312,181.6067 L 811.00536,178.57887 L 809.61962,176.34742 C 806.28075,173.63697 801.58886,176.39722 798.1162,177.30396 L 797.00731,174.59449 L 797.83934,171.24732 C 799.13133,169.47291 803.96922,168.70289 806.01561,168.8567 C 807.00291,168.93043 808.07176,169.53688 809.06493,169.65406 C 810.2285,169.79029 811.67968,169.42847 812.80712,169.65406 C 813.43993,169.78052 817.08056,171.86011 817.65771,172.36353 C 819.60498,174.06226 820.8706,176.80152 822.36962,178.89771 L 825.28026,179.69459 C 831.00292,177.74098 835.9702,172.9773 833.31835,166.46607 C 834.07519,163.2107 836.2495,162.59888 838.72362,161.04712 C 839.10204,160.80982 840.687,159.56079 840.94139,159.45337 C 842.67381,158.71948 844.89989,158.87915 846.62352,157.85962 C 847.79491,157.16675 849.53368,155.32056 850.36571,154.1936 L 850.91991,150.84692 C 848.76464,147.43481 841.70555,146.05786 838.03075,144.9497 C 835.53368,145.93359 832.65184,147.05981 830.68554,148.93432 L 827.35937,149.25244 C 825.90527,148.64599 824.34521,146.45239 824.0332,144.94971 L 825.00293,142.08033 C 824.76465,136.91627 818.48975,136.58131 820.70654,128.53321 L 818.90478,126.78028 C 816.41894,126.62134 813.91162,126.56788 811.42089,126.62086 C 810.312,125.19874 809.46728,122.97193 809.2036,121.20191 C 811.39061,118.15845 814.62743,118.62794 817.6577,118.17335 C 819.78856,117.85377 821.32469,116.84156 823.20116,115.94215 C 828.43749,113.43263 831.17919,112.7212 836.87548,114.50807 C 837.99364,114.85866 839.52636,115.3318 840.52587,115.94215 C 841.86327,116.75953 842.99462,118.11451 844.40624,118.97047 L 844.12891,118.97047 L 844.12891,118.97046 z "
   style="fill:#fefee9;fill-rule:evenodd;stroke:#0978ab;stroke-width:0.85039997;stroke-linejoin:round;stroke-miterlimit:3.8636899"
   id="path29" />
			<path
   d="M 789.66211,183.52026 L 792.71094,184.15698 L 794.5127,186.22925 C 796.3252,186.91626 799.01612,187.00757 800.8877,186.54761 L 801.16504,189.89527 C 798.10498,192.92945 794.58154,197.78199 789.80078,197.22632 C 788.43262,196.59741 786.72461,194.82007 786.19726,193.40161 C 784.30078,194.24292 781.4204,194.40259 779.40576,194.03882 C 777.33789,192.11597 777.40576,187.67652 778.85205,185.43237 C 782.31299,185.38062 786.47314,185.00317 789.66211,183.52026 z "
   style="fill:#fefee9;fill-rule:evenodd;stroke:#0978ab;stroke-width:0.85039997;stroke-linejoin:round;stroke-miterlimit:3.8636899"
   id="path31" />
			<path
   d="M 781.20801,204.87671 L 781.06934,208.54224 C 778.23926,212.07056 775.0503,212.26636 770.95215,213.1648 L 769.84326,210.13648 C 771.14844,208.07349 770.47217,203.48267 768.45703,202.00806 L 765.54687,201.21118 C 763.60888,199.45581 762.15576,197.07202 760.83447,194.83569 C 761.13135,194.80639 763.90918,194.4978 764.02197,194.51733 C 766.2539,194.89135 768.11181,196.62915 769.98193,197.70434 C 774.20068,200.13013 777.7124,200.85132 781.20801,204.87671 z "
   style="fill:#fefee9;fill-rule:evenodd;stroke:#0978ab;stroke-width:0.85039997;stroke-linejoin:round;stroke-miterlimit:3.8636899"
   id="path33" />
			<path
   d="M 765.82422,166.3064 C 766.45068,167.65015 767.77734,169.448 769.01172,170.29078 C 769.7583,170.80055 770.8335,171.13746 771.64502,171.56617 C 774.0376,172.83082 776.41846,174.27467 778.71338,175.70972 C 777.46777,176.99195 776.13428,178.15601 774.83252,179.37574 C 771.38916,182.60133 768.11865,186.5691 762.7749,185.59156 C 761.6206,182.39869 762.73144,181.20582 762.49756,179.21656 C 762.36768,178.1106 760.97949,174.65406 760.41895,173.47828 C 759.54395,171.64332 758.26221,170.95094 757.09229,169.4939 C 755.2334,167.17798 753.26075,161.43531 753.21192,158.49683 L 756.26124,157.85962 C 757.51563,158.98023 759.13429,160.01343 760.28077,161.2063 C 761.3213,162.28931 761.99854,164.08911 763.19093,165.03198 C 763.34082,165.15015 765.51514,166.15698 765.82422,166.3064 z "
   style="fill:#fefee9;fill-rule:evenodd;stroke:#0978ab;stroke-width:0.85039997;stroke-linejoin:round;stroke-miterlimit:3.8636899"
   id="path35" />
			<path
   d="M 789.66211,132.51782 C 790.60547,130.10937 792.00049,127.01684 794.65088,126.14282 C 796.84912,126.51172 799.08057,126.77954 801.30371,126.9397 C 802.29248,128.5459 802.80078,131.13404 802.68994,132.99585 L 804.4917,135.38672 C 806.23096,135.60864 808.271,136.38062 809.75781,137.29956 C 811.06006,140.03906 812.66162,146.21387 813.91601,148.13745 C 814.51367,149.05371 817.08984,151.04614 818.07324,151.6438 L 819.04394,154.1936 C 816.93945,156.66479 810.55615,160.18969 807.40185,161.04712 C 801.65917,160.84058 801.49267,154.52319 796.5913,153.07788 C 792.67821,151.92456 790.47997,153.85474 786.89013,154.03442 C 784.71972,154.14282 780.55712,152.52661 779.1289,150.84692 C 778.54833,148.25 776.78515,145.76245 774.83251,143.99365 L 771.36767,143.67456 C 769.99999,143.04517 768.29199,141.26831 767.76464,139.84985 L 768.59618,136.82104 C 772.00487,134.80786 774.61278,133.15527 778.43602,131.88061 C 780.52049,132.14575 782.07664,133.46044 783.70262,133.79272 C 785.33838,134.1272 788.40039,133.76953 789.66211,132.51782 z "
   style="fill:#fefee9;fill-rule:evenodd;stroke:#0978ab;stroke-width:0.85039997;stroke-linejoin:round;stroke-miterlimit:3.8636899"
   id="path37" />
			<path
   d="M 760.55762,126.9397 C 760.00244,124.83472 760.95117,119.39771 761.80469,117.3772 C 762.68408,115.29517 771.95948,105.15454 774.00098,103.51099 C 774.56787,103.05445 780.31885,99.35205 780.93018,99.0481 C 783.72998,97.65601 786.93213,97.41748 789.93897,96.97632 C 792.00049,96.67359 794.00782,95.84619 796.03711,95.54175 C 798.69287,95.14356 806.7749,95.4231 808.92627,96.97632 L 810.17334,99.6853 L 808.2334,101.43872 C 806.60254,101.25952 805.56885,102.97119 804.35254,103.67017 C 802.70654,104.6167 800.4541,104.823 798.67041,105.42334 C 795.53271,106.47974 791.84912,108.77759 789.24658,110.84204 C 787.43359,112.27954 785.25342,114.73437 783.84131,116.58008 C 783.33692,117.23902 783.00195,118.20581 782.45508,118.81153 C 779.69873,121.86353 769.83545,128.59205 765.82422,129.01148 C 764.29736,129.1709 761.5625,128.13403 760.55762,126.9397 z "
   style="fill:#fefee9;fill-rule:evenodd;stroke:#0978ab;stroke-width:0.85039997;stroke-linejoin:round;stroke-miterlimit:3.8636899"
   id="path39" />
			<polygon
   points="1064.0752,827.89575 1063.2436,830.92407 1060.6103,830.44604 1060.749,827.41772 1062.4126,825.18628 1064.0752,827.89575 "
   style="fill:#fefee9;fill-rule:evenodd;stroke:#0978ab;stroke-width:0.85039997;stroke-linejoin:round;stroke-miterlimit:3.8636899"
   id="polygon41" />
			<polygon
   points="1120.7593,749.00269 1120.3438,751.55298 1117.7105,751.07446 1118.6811,748.20532 1120.7593,749.00269 "
   style="fill:#fefee9;fill-rule:evenodd;stroke:#0978ab;stroke-width:0.85039997;stroke-linejoin:round;stroke-miterlimit:3.8636899"
   id="polygon43" />
			<polygon
   points="986.32471,610.50073 988.26514,612.57251 988.54248,615.7605 985.49316,616.39771 983.27588,614.96313 982.30566,612.25366 986.32471,610.50073 "
   style="fill:#fefee9;fill-rule:evenodd;stroke:#0978ab;stroke-width:0.85039997;stroke-linejoin:round;stroke-miterlimit:3.8636899"
   id="polygon45" />
			<path
   d="M 961.82129,905.21362 L 961.37842,904.71704 C 959.45947,902.67993 958.28467,902.4939 956.20362,900.99878 C 955.39649,900.41821 953.75538,899.93628 953.75538,899.93628 C 953.11866,894.823 949.60548,891.72095 947.51905,887.34448 C 947.11573,886.49927 946.96973,885.4685 946.54884,884.6355 C 946.15773,883.86109 945.39601,883.18384 945.02443,882.40405 C 944.63283,881.58374 944.57472,880.52221 944.19289,879.69507 C 943.8091,878.86402 943.07228,878.12915 942.66848,877.30396 C 941.93166,875.79761 941.21096,873.66431 940.72805,872.04468 C 939.46047,867.79273 938.45168,859.79761 939.06496,855.469 C 939.20558,854.47535 939.68117,853.43043 939.8965,852.44019 C 940.38722,850.18189 940.64211,847.73804 940.58937,845.42749 L 937.95607,844.15308 C 937.17628,845.57203 935.79543,847.32935 934.49123,848.29663 C 933.80275,848.80737 932.8135,849.05151 932.13527,849.57153 C 931.53322,850.03344 930.94093,851.09106 930.33302,851.48462 C 930.04249,851.67261 925.58448,853.17603 924.92872,853.39673 L 922.4336,852.12134 C 922.12696,849.99292 922.44141,847.97925 922.29542,845.90552 C 922.15772,843.95435 921.54151,841.79126 921.18653,839.84937 L 922.98829,837.93726 C 925.07667,839.21265 926.51808,841.04761 928.80909,842.08081 C 931.1919,840.74145 933.61182,838.75806 933.93702,835.8645 C 931.9712,831.21557 927.62159,831.93286 926.03712,828.85229 L 926.03712,826.46118 L 928.67042,825.50464 C 931.26954,826.18189 933.49903,828.27368 935.18409,830.28687 L 937.81739,829.96753 C 936.82667,826.48804 934.98829,822.59058 934.76856,818.97046 C 934.67335,817.40308 935.02833,815.57349 935.0918,813.97681 C 935.16162,812.21216 935.09961,809.81519 935.6001,808.13208 C 936.09131,806.48022 937.47901,804.75269 938.09473,803.03247 C 938.42676,802.10474 938.57373,801.0813 938.92627,800.16382 C 939.66455,798.2395 940.62451,796.68872 941.00537,794.58521 L 939.3418,792.51343 C 935.45459,791.31568 930.89405,793.41675 926.5918,792.83179 C 924.50391,791.12769 922.11328,789.80738 920.07764,788.05103 C 918.75733,786.91187 917.61133,785.59351 916.19678,784.54419 C 914.70703,783.43921 913.04346,782.78345 911.48487,781.83472 C 909.97706,780.91675 908.62159,779.67749 907.18848,778.64722 C 906.48096,778.13892 905.45069,777.64136 904.83252,777.05298 C 903.88818,776.15454 900.94775,771.36206 900.25879,770.04077 C 899.40918,768.41235 899.10693,766.43432 898.31836,764.781 C 896.80127,761.59985 894.20166,758.73705 892.63623,755.53735 C 892.22461,754.69555 892.05078,753.68676 891.66602,752.82739 C 891.27149,751.94702 890.67481,751.15747 890.28028,750.2771 C 889.70069,748.98364 887.95118,742.7522 887.92432,741.51148 C 887.86377,738.73218 889.26416,734.44117 889.58692,731.47046 C 889.81592,729.36401 889.74659,727.20923 890.00294,725.09546 C 890.40187,721.80835 891.08448,718.4773 891.66603,715.21411 L 890.1421,712.66382 C 886.85011,710.86548 882.70362,710.78833 879.19288,709.47583 C 875.56544,708.11987 867.48927,703.92163 864.64063,701.34741 C 863.4834,700.302 861.83643,698.74145 860.89893,697.52221 C 859.48584,695.6853 855.99561,689.30932 854.43116,686.79125 C 853.81007,685.79125 853.27491,684.59057 852.5835,683.65648 C 851.56202,682.27709 850.02881,681.19505 848.9795,679.8308 C 848.4668,679.16478 848.13917,678.22728 847.59425,677.59984 C 846.44191,676.27562 844.70851,675.34691 843.57472,673.93431 C 840.83742,670.52367 838.92872,665.98656 836.92238,662.13988 C 836.52492,661.37816 835.90431,660.68041 835.53615,659.90843 C 834.26076,657.2346 834.17775,654.13499 832.90285,651.46116 C 832.16262,649.90891 830.88771,648.54563 830.13088,646.99876 C 829.68215,646.08128 829.47072,645.04759 829.02199,644.13011 C 828.26564,642.58275 826.99025,641.21947 826.25051,639.66722 C 825.52737,638.15111 824.67483,636.01048 824.17141,634.40745 C 823.34963,631.78977 822.89993,627.61546 822.78567,624.84446 C 822.64065,621.33714 823.57766,617.46995 822.78567,614.00657 C 822.56887,613.05784 821.17337,609.67063 820.70657,608.7468 C 820.31546,607.97239 819.55374,607.29563 819.18216,606.51584 C 818.80667,605.72873 818.77835,604.54416 818.35062,603.80637 C 817.93705,603.0925 816.93216,602.4094 816.41068,601.73459 C 815.37552,600.39621 814.38529,598.41379 813.91605,596.79416 C 813.42289,595.09396 812.91898,592.49924 812.80716,590.73752 C 812.65775,588.39182 813.02249,586.11252 812.668,583.72482 C 812.22415,580.7341 811.14114,577.97726 810.31204,575.11789 C 809.28225,571.56418 808.28518,566.51828 807.8179,562.84543 C 807.33401,559.04611 808.02933,555.22531 807.17093,551.47629 C 806.58988,548.93918 806.17142,546.08078 805.04544,543.72043 C 804.67728,542.94748 804.02786,542.26145 803.6597,541.48898 C 802.89163,539.87863 802.22708,537.91378 801.5806,536.22921 C 800.74662,534.05538 799.55667,530.07491 798.9473,527.78146 C 798.68802,526.80539 798.67337,525.72091 798.3931,524.75363 C 797.67435,522.27316 796.32474,519.13107 795.2056,516.78488 C 794.8306,515.99777 794.11624,515.19748 793.81937,514.39377 C 793.68802,514.03732 793.70658,513.81027 793.6348,513.43772 C 793.32035,511.80881 792.70658,509.96116 792.5723,508.33762 C 792.47855,507.20334 792.80716,505.96457 792.71097,504.83078 C 792.52493,502.64084 791.7847,500.59299 791.74076,498.29709 C 791.62846,492.35227 792.12455,486.11789 793.26517,480.28684 C 793.85062,477.29612 795.18119,474.47971 795.7598,471.52073 C 796.39798,468.25803 796.9556,464.31614 796.86869,461.00169 C 796.34135,459.58274 794.63334,457.8054 793.26517,457.17649 L 789.80081,457.33567 C 788.64505,458.66575 787.21829,459.71946 786.05813,461.00169 C 785.46682,461.6555 785.02639,462.63694 784.39553,463.23314 C 784.19778,463.41966 779.96047,466.06371 779.8218,466.10179 C 778.23928,466.5349 775.60989,466.22825 773.95461,466.15501 C 772.16604,466.07591 768.70363,465.24241 767.20949,464.18919 C 764.38137,462.19554 763.36818,457.90208 761.25051,455.2639 C 758.99221,452.45091 751.75295,445.96556 750.30178,443.62913 C 748.75832,441.14427 749.24807,439.56419 746.14407,436.61595 C 743.397,436.65404 740.83645,439.15404 739.49124,441.39769 C 739.04495,442.14134 738.87454,443.25316 738.38284,443.94798 C 737.67386,444.94847 736.06643,446.072 735.14895,446.9763 C 734.89651,447.22484 734.80227,447.42552 734.50247,447.61351 C 733.78274,448.06517 732.64212,448.17455 731.86868,448.57005 C 730.65872,449.1887 728.38089,450.60618 727.29544,451.4387 C 726.59671,451.97386 726.0596,452.82835 725.35501,453.3513 C 724.98831,453.62327 721.18411,456.00853 720.78177,456.21995 C 718.31497,457.51683 715.26175,457.96116 712.7432,459.24827 C 708.82963,461.24876 706.20756,465.37376 702.7642,468.01389 C 700.13041,470.03342 695.66264,471.79807 692.50834,472.79563 C 688.52738,474.05491 673.2974,474.77952 669.36381,473.59251 C 667.5059,472.13743 667.10649,469.99485 666.22221,467.96116 C 665.1309,465.45139 665.19096,463.12522 665.29838,460.41721 C 665.84721,446.56076 675.83891,447.35617 675.73881,439.3259 L 672.68998,438.36936 C 670.93314,438.99827 669.4893,439.96946 667.83891,440.76047 C 665.98295,441.64963 659.08452,444.56467 657.30571,445.0632 C 652.25591,446.4797 641.58452,444.61789 635.96294,444.74435 C 634.85259,444.76925 633.74712,445.03878 632.63628,445.0632 C 631.41265,445.09054 629.95073,444.75802 628.75591,444.90402 C 626.84038,445.1384 625.53472,446.65353 623.90532,447.29464 L 617.94585,448.57003 C 614.18608,448.66378 609.45171,447.06466 607.96733,443.31026 L 608.79838,440.28243 C 611.88432,438.75167 611.54936,434.66866 615.72856,432.47237 C 619.78325,430.34102 624.29057,431.94258 628.2017,430.24092 L 629.67973,429.17842 C 633.91264,426.13692 634.08354,423.44209 637.21049,420.35908 C 638.5557,419.03291 640.3311,418.18183 641.78373,417.0124 C 644.439,414.87519 647.00297,411.99385 648.71342,409.04316 C 649.64262,407.44013 650.13383,405.50263 651.06938,403.94355 C 651.32182,403.52265 655.78129,397.2497 655.78129,397.2497 C 656.00688,397.03681 657.76615,396.2497 658.13725,395.97431 C 659.29985,395.11201 661.06059,393.40986 662.01811,392.30829 C 664.93071,388.95868 666.98051,384.68817 669.91801,381.31122 C 672.78862,378.01044 676.6226,375.51337 679.481,372.22626 C 680.03471,371.58954 680.44047,370.77851 681.00541,370.15448 C 681.57768,369.52264 682.38871,369.04218 682.94584,368.40106 C 683.56938,367.68426 683.98539,366.72723 684.60893,366.01044 C 685.16606,365.36933 685.97709,364.88935 686.54887,364.25751 C 687.10209,363.64716 687.49223,362.75556 688.07377,362.18573 C 689.63236,360.65887 691.14018,360.6496 692.92436,359.79511 C 693.72758,359.40986 694.46879,358.53632 695.28032,358.20087 C 696.18315,357.82831 697.41655,357.92255 698.32964,357.56366 C 699.08648,357.26581 699.80083,356.48651 700.54693,356.12909 C 701.40728,355.71649 702.45855,355.58466 703.3189,355.17255 C 705.0606,354.33808 706.02447,352.93915 707.47661,351.82587 C 708.13237,351.32294 709.02837,351.04462 709.6939,350.55048 C 710.43511,350.00068 711.03521,349.19501 711.77251,348.63837 C 712.46392,348.11689 713.49907,347.77314 714.12944,347.2038 C 714.6895,346.69745 715.15581,345.72773 715.65337,345.13202 C 719.03862,341.07587 720.35405,339.5036 722.72173,334.66571 C 723.24956,333.5871 723.99468,332.38788 724.38482,331.26581 C 725.06451,329.3122 725.30962,327.19061 726.04791,325.20917 C 726.75396,323.31464 727.66363,322.04706 728.81988,320.42792 C 729.75494,319.11884 730.71539,317.21356 731.86871,316.12421 C 732.60797,315.42548 737.87066,312.20722 738.93707,311.6623 C 740.89117,310.66328 743.36578,310.30146 745.49713,309.85566 C 754.16705,308.04267 768.38141,309.61884 769.56598,320.74677 C 767.51178,320.74042 765.34332,320.508 763.32916,320.10859 L 762.08209,322.81806 L 762.77496,325.04951 C 765.62408,327.82344 774.53375,328.55635 778.43609,328.55635 C 781.82379,328.55635 785.20367,327.65987 788.55328,328.55635 C 789.59967,328.83614 790.90435,329.59932 791.87945,330.09737 C 799.76617,334.12471 796.55035,341.19161 801.02691,345.76876 C 801.84136,346.60177 804.62896,348.2131 805.73882,348.63839 C 806.66216,348.99239 807.72173,349.08859 808.64898,349.43527 C 812.38531,350.83127 818.07134,354.40451 821.53863,355.49191 C 821.7149,355.54709 824.82525,356.11984 825.00299,356.12912 C 828.15485,356.29367 827.91412,354.97971 829.85406,354.21652 C 831.75006,353.47043 833.24859,354.19064 835.25885,352.30392 C 835.51764,350.22628 835.76227,347.68966 835.53619,345.61007 C 835.4273,344.60812 834.99566,343.5837 834.84332,342.58175 C 834.52398,340.48507 834.65045,338.23214 833.87359,336.20626 C 833.56646,335.40597 832.87994,334.59347 832.48736,333.81612 C 831.23297,331.33223 830.27105,328.63936 829.02203,326.16573 C 828.64996,325.42794 827.93463,324.68868 827.63629,323.93428 C 826.89654,322.06172 826.79108,320.09053 825.83453,318.19649 C 824.73346,316.01534 823.16998,313.43331 821.6773,311.50264 C 821.15289,310.82393 820.31255,310.14961 819.87505,309.43037 C 818.89653,307.82246 817.26421,303.57099 816.41069,301.78047 C 815.65434,300.19502 814.27934,298.86104 813.50005,297.31758 C 812.23491,294.8127 811.81939,291.68428 810.58941,289.18916 C 810.20562,288.40986 809.45757,287.73555 809.065,286.9582 C 808.64459,286.12568 808.5152,285.08125 808.09527,284.24873 C 807.70172,283.46992 806.96343,282.79609 806.57037,282.01728 C 806.14996,281.18427 806.02057,280.14033 805.60016,279.30732 C 805.20905,278.53291 804.44782,277.85566 804.07575,277.07636 C 803.68464,276.25556 803.62604,275.19404 803.24372,274.36689 C 802.503,272.76337 801.13825,271.33857 800.33356,269.74482 C 799.89508,268.87617 799.66315,267.90351 799.22467,267.03486 C 798.83746,266.26777 798.20807,265.57685 797.83942,264.80341 C 795.30768,259.49433 797.33991,255.83466 793.54254,250.77802 L 791.6026,251.09736 C 790.63678,252.56367 789.61969,254.00459 788.55328,255.40009 L 785.7818,256.5163 C 781.19586,255.99579 780.44391,252.11005 778.15875,249.0246 C 777.08209,247.57099 775.80816,246.5871 774.97125,244.88105 C 772.74078,241.10615 769.77789,237.3371 767.90289,233.40595 C 766.67828,230.83759 765.99518,227.9704 764.71539,225.43671 C 764.32232,224.6579 763.72223,223.98407 763.32916,223.20526 C 762.9024,222.36053 762.69098,221.30731 762.22027,220.49579 C 761.35259,218.99872 759.85748,217.77362 759.03277,216.19257 C 757.7647,213.76239 756.99713,210.78681 755.98394,208.22382 C 754.95953,205.63105 753.5689,202.92157 752.79644,200.25458 C 752.51568,199.28681 752.50835,198.20038 752.24224,197.22626 C 751.75005,195.42646 750.72027,193.74042 750.16314,191.96649 C 749.54839,190.00848 749.49419,187.85126 748.91558,185.91034 C 748.6646,185.06805 748.00054,184.20477 747.80718,183.36054 C 747.55913,182.27509 747.69536,180.96845 747.52984,179.8537 C 747.37847,178.8327 746.99224,177.84638 746.83697,176.82587 C 746.49468,174.57978 746.55865,172.23651 746.42144,169.97235 C 746.29986,167.96893 745.91167,165.91083 745.86675,163.91571 C 745.76519,159.33661 746.95855,153.7619 746.69829,149.57147 C 746.55034,147.18695 745.49956,145.12958 744.71196,142.93036 C 744.17973,141.44452 743.66704,139.82245 742.9561,138.41474 C 742.56889,137.64765 741.93901,136.95649 741.57036,136.18354 C 741.16509,135.33369 741.00542,134.32392 740.60015,133.47431 C 739.85992,131.92158 738.63091,130.45429 737.68999,129.01142 C 735.94585,126.33759 734.10503,122.50898 733.11626,119.44868 C 731.51323,114.4875 731.86626,107.51387 729.92876,103.19209"
   style="fill:none;fill-rule:evenodd;stroke:#0978ab;stroke-width:0.85039997;stroke-linejoin:round;stroke-miterlimit:3.8636899"
   id="path47" />
			<path
   d="M 942.83252,0.81543 C 943.69287,2.6355 944.39551,4.76831 944.33154,6.12915 C 944.28662,7.07935 942.78662,10.83081 942.25244,11.70776 C 941.80566,12.44214 941.04883,13.05005 940.58935,13.77954 C 939.60107,15.34936 939.10107,17.2522 938.23339,18.87988 C 935.57323,23.87207 931.45214,29.36059 931.58105,35.2959 C 931.63232,37.66699 933.31543,41.40723 934.35302,43.58325 C 935.30419,45.57763 936.7705,46.73755 937.90966,48.52441 L 941.83691,54.73999 C 942.73291,56.18237 943.42968,57.85645 944.47021,59.20264 C 945.56494,60.6189 947.15625,61.75269 948.21191,63.18726 C 948.70019,63.85083 948.95898,64.76831 949.45898,65.41871 C 951.21386,67.69972 953.6289,68.59449 955.00244,71.31568 C 955.40625,72.11524 957.10596,75.57105 957.35889,76.2566 C 957.41162,76.39967 958.04053,79.14527 958.05225,79.28492 C 958.15137,80.51514 957.88916,81.86597 957.91358,83.10963 C 957.94483,84.73658 958.28858,86.29713 958.46778,87.89137 C 958.72217,90.16237 958.72706,92.47975 959.02198,94.74464 C 959.688,99.84986 959.90968,101.98243 961.65528,106.85768 C 961.95753,107.70216 962.10694,108.7693 962.48731,109.56715 C 963.55518,111.80738 965.54835,114.11622 967.19922,115.94215 C 968.93945,117.86622 970.65283,120.13697 972.60401,121.83912 C 977.54444,126.14869 986.87501,130.57252 993.2544,132.0398 C 997.7671,133.07764 1002.7803,131.95972 1007.1138,133.63404 C 1009.3706,133.72974 1012.4468,133.46827 1014.5982,133.95216 C 1014.7876,133.99488 1016.9053,135.07496 1017.2315,135.22731 C 1020.0781,136.55446 1021.9805,137.72707 1022.6362,141.12404 L 1022.082,143.67458 C 1020.9068,144.73659 1019.5127,146.35866 1018.2012,147.18142 C 1015.8247,148.6719 1006.8374,151.37869 1004.065,151.64382 C 1001.6792,151.87234 999.32473,151.10427 996.9966,150.84694 C 995.78762,150.71364 994.44484,150.88747 993.25441,150.68776 C 992.28761,150.52565 991.31105,149.92458 990.34425,149.73122 C 989.29054,149.52077 987.95997,149.4861 986.87941,149.41286 C 979.84621,148.9363 972.5298,150.47438 965.53566,148.93434 C 963.69191,148.52809 961.34718,147.84328 959.57619,147.18141 C 956.65871,146.09059 954.74172,144.6487 951.53859,143.99367 C 948.26613,143.32448 944.74757,142.69948 941.4214,142.39943 C 940.2007,142.28932 938.72462,142.47194 937.54054,142.24001 C 936.62941,142.06179 933.02443,140.59255 931.99659,140.16823 C 929.42432,139.10671 926.95362,137.54079 924.37403,136.50246 C 923.39893,136.11013 922.31544,135.90749 921.32471,135.54616 C 919.53662,134.89382 917.91162,133.95485 916.19678,133.15554 C 911.84424,131.12722 907.77198,129.11843 903.58545,126.7803 C 902.74609,126.31179 901.76904,126.0032 900.95166,125.50564 C 896.4082,122.73953 892.43018,118.53665 887.78564,115.94216 C 886.97607,115.49001 885.94775,115.29714 885.15283,114.82668 C 884.36719,114.36257 883.71582,113.54909 882.93506,113.07351 C 882.17871,112.6133 881.21094,112.40115 880.44043,111.95828 C 878.88623,111.06473 877.54102,109.70486 876.00488,108.77005 C 873.64306,107.33231 871.03174,106.18875 868.65967,104.78616 C 867.88721,104.32937 867.21045,103.6597 866.4419,103.19217 C 863.26124,101.25516 859.43067,99.98758 856.04737,98.41043 C 852.66358,96.83279 849.26758,94.80154 845.792,93.46951 C 842.9253,92.37088 839.65186,91.99173 836.78321,90.91971 C 835.92969,90.60037 835.14259,89.96366 834.28858,89.64456 C 828.81641,87.59939 822.65088,87.9573 816.96436,87.57254 C 815.85889,87.49783 814.74463,87.19412 813.63868,87.09427 C 812.41651,86.98416 811.10499,87.10526 809.896,86.93485 C 807.85791,86.64798 805.9209,85.63846 803.93702,85.18216 C 800.94679,84.49442 793.17188,84.56863 790.07764,85.02274 C 785.53614,85.68924 780.04785,87.38627 775.94141,89.48514 C 775.17676,89.87625 774.49561,90.55008 773.72412,90.91971 C 772.06152,91.71634 770.05517,92.1492 768.31885,92.83231 C 765.30127,94.01883 761.41895,96.33744 758.75635,98.25126 C 757.31885,99.28397 756.11084,100.65165 754.73682,101.75761 C 752.02784,103.93779 749.08789,106.1956 746.00537,107.81376 C 744.36279,107.89677 741.49316,107.16483 740.32275,105.90141 C 738.15234,101.20439 738.61767,99.25297 737.68994,94.58525 C 737.49267,93.59404 737.12353,92.55351 736.99658,91.55717 C 736.53076,87.8936 736.65771,83.95829 736.3501,80.24101 C 736.20606,78.49907 736.27198,76.34135 735.88819,74.66289 C 735.47462,72.85674 734.24757,71.0916 733.80909,69.24394 C 733.61866,68.44023 733.74171,67.48857 733.53223,66.69389 C 733.07959,64.97807 732.15332,63.37724 731.73047,61.59404 C 731.06983,58.80669 730.98682,55.62187 729.09717,53.30547 L 727.15674,52.19048 L 726.04785,54.74004 C 726.49267,56.54131 727.59619,58.28618 727.98828,59.99981 C 728.31982,61.44805 728.15381,63.01739 728.49658,64.51568 C 729.37744,68.36895 730.81933,71.53692 730.89844,75.61944 C 730.96631,79.14483 730.09326,82.49395 729.79053,85.9793 C 729.28711,91.76397 729.48242,97.42461 729.95948,103.19219"
   style="fill:none;fill-rule:evenodd;stroke:#0978ab;stroke-width:0.85039997;stroke-linejoin:round;stroke-miterlimit:3.8636899"
   id="path49" />
			<path
   d="M 951.60986,0.81543 C 952.50976,5.01709 952.41259,9.84399 951.67675,13.14233 C 951.13183,15.58618 949.61279,19.09301 948.35058,21.27075 C 945.02099,27.01343 941.60839,26.74487 939.34179,35.13647 L 940.72802,41.19262 C 942.90917,43.16845 943.72021,45.41332 945.30175,47.72729 C 946.65527,49.70874 948.81152,51.35717 950.42968,53.14648 C 952.77978,55.74536 955.49804,58.18969 957.63622,60.95581 C 959.28466,63.08911 960.38231,65.53662 961.79393,67.80933 C 962.24559,68.53638 962.94774,69.28272 963.31883,70.04078 C 964.00926,71.45289 964.38133,73.29444 964.75047,74.82203 C 966.54637,82.25562 965.67039,85.77955 965.81346,92.99146 C 965.89891,97.29664 968.84227,109.64332 971.77244,112.75464 C 972.34422,113.36157 973.34812,113.78882 973.99021,114.34888 C 975.13914,115.35132 976.04343,116.45972 977.27,117.42993 C 977.55857,117.65796 977.69285,117.82739 978.00926,118.0144 C 978.77733,118.4685 979.81981,118.7561 980.64256,119.12963 C 986.166,121.63671 988.78318,122.5039 994.64061,124.07055 C 997.67723,124.88281 1000.6216,126.11108 1003.6489,126.93969 C 1006.7129,127.77856 1009.896,128.02831 1012.9345,129.01147 L 1013.6274,129.80835 C 1016.8735,130.23853 1020.4199,130.70117 1023.4677,131.40234 C 1025.312,131.82666 1027.5244,132.35278 1029.2885,132.99585 C 1033.0669,134.37329 1036.5263,136.92798 1040.792,136.82105 C 1043.1025,136.76343 1044.1826,135.57251 1046.0581,134.90894 C 1047.9922,134.22437 1050.3134,134.24537 1052.2949,133.63404 C 1053.146,133.37134 1056.9614,131.93775 1057.5615,131.56129 C 1059.1342,130.57472 1059.8042,129.13258 1061.8579,128.37428 C 1063.0952,125.1399 1067.4409,118.09669 1067.9555,115.46412 C 1068.102,114.71754 1068.1167,109.23121 1067.9555,108.45167 C 1067.603,106.73805 1066.3486,104.99073 1065.4614,103.511 C 1062.9209,99.27467 1057.0122,90.94557 1056.7304,86.29762 L 1056.9145,83.74733 C 1057.0019,82.54323 1057.4018,80.95192 1058.1157,79.92213 L 1060.4721,79.12574 C 1063.622,81.19947 1067.3227,82.20484 1070.4507,84.38502 C 1073.4555,86.47926 1081.3203,92.19313 1084.31,93.31031 C 1089.2305,95.14918 1092.1885,94.8606 1097.1992,93.78834 C 1098.102,93.59498 1099.2016,93.22389 1100.1089,93.15113 C 1102.1426,92.98804 1104.8574,93.28516 1106.9004,93.46949 C 1111.3965,93.87476 1115.8349,95.14283 1120.3437,95.54176 C 1122.8227,95.761 1125.3486,95.63697 1127.8276,95.86061 C 1129.9966,96.05641 1131.9731,96.63942 1134.1108,95.74904"
   style="fill:none;fill-rule:evenodd;stroke:#0978ab;stroke-width:0.85039997;stroke-linejoin:round;stroke-miterlimit:3.8636899"
   id="path51" />
		</g>
		<g
   id="Grenzen">
			<path
   d="M 729.92871,103.19214 C 699.84766,89.85816 674.49951,78.03443 644.39453,64.75659 C 641.51465,63.48657 619.47021,53.40161 618.104,53.16528 C 615.72314,52.75366 609.9292,53.16552 607.36816,53.16552 L 582.26171,53.16528 L 498.6582,53.16528 L 459.18799,53.16528 C 457.72803,54.26049 456.02588,55.94189 454.45703,56.71704 C 451.27295,58.29004 447.14697,58.58374 443.85986,60.00854 C 443.5874,60.1267 437.94775,64.48388 437.72705,64.65112 C 431.88428,69.07641 426.08203,74.0896 419.62598,77.60815 L 415.47608,79.27661 C 414.09424,79.83203 412.07618,80.88794 410.59278,81.24048 C 407.35108,82.01001 403.99122,82.40747 400.73292,83.1189 C 393.9336,84.60376 378.94874,90.71363 373.32862,94.09449 C 371.15137,95.40406 367.16651,98.29859 365.31202,100.01563 C 362.4214,102.69288 359.89161,106.32496 357.28516,109.36133 C 355.09375,111.45532 351.26221,114.54859 349.63819,116.66821 C 349.57862,116.74585 345.1084,125.09131 345.01221,125.32739 C 343.79053,128.32885 343.50928,131.93213 342.22022,134.89111 L 338.84424,140.54004 C 337.021,143.59009 334.19434,148.86133 333.16065,152.21167 C 332.20215,155.31714 332.10792,158.9729 331.35499,162.16382 C 329.6338,169.45679 325.23829,183.42944 322.31153,190.24585 C 321.27833,192.65112 319.80714,195.07056 318.59669,197.40308 C 315.67042,203.04224 311.29591,211.03296 309.41456,216.76734 C 308.4214,219.79468 307.81251,223.30836 306.58497,226.22095 C 305.35059,229.14966 303.14796,231.81958 301.84547,234.72974 C 300.59278,237.52808 300.11134,241.45533 298.60499,244.04859 L 294.21485,249.115 C 293.35865,250.10279 292.77393,250.58033 292.01954,251.64771 C 291.83741,251.90552 287.01002,260.42847 286.99122,260.48609 L 286.2212,267.17554 C 285.6753,271.91675 286.01173,276.82593 285.37843,281.49683 L 283.70948,288.73511 C 283.38404,290.14673 283.38551,290.99878 282.87501,292.35474 C 282.47169,293.42505 281.97096,293.89869 281.39308,294.88599 L 278.42897,299.94898 C 276.80983,302.50171 274.49269,305.07642 273.11964,307.73511 C 271.71803,310.44995 271.25782,314.4314 269.6504,316.94995 C 267.87403,319.73462 264.20094,321.85474 262.34962,324.6145 C 261.65797,325.64575 261.58985,326.4021 261.10426,327.54468 C 259.42701,331.49048 256.68238,339.35376 254.96437,342.58911 C 253.43458,345.46899 250.94582,347.99878 249.34669,350.85327 C 247.81446,353.58765 247.03077,357.11889 245.35816,359.73266 C 243.67188,362.36791 240.70923,365.16528 238.64503,367.57739 C 238.57594,368.43823 237.90919,377.44165 237.83229,377.69653 C 237.60353,378.45483 233.60841,385.05737 232.97169,386.37622 C 230.00514,392.52173 228.16114,399.24145 225.45265,405.49048 L 222.26051,412.02368 C 221.63795,413.29761 221.44191,414.10473 220.66432,415.29028 C 218.99244,417.8396 216.12379,420.43042 214.11305,422.77954 C 210.59572,426.8894 207.17311,431.08667 203.73976,435.26684 C 201.24098,438.30883 198.20875,443.74487 196.17213,445.96215 C 193.97609,448.35277 190.62355,450.11059 188.25856,452.38403 L 183.97902,457.28833 C 183.1443,458.24438 182.51369,458.66528 181.83888,459.74048 C 181.14039,460.85376 181.02174,461.62671 180.49928,462.83277 C 178.65553,467.08961 175.93409,474.17359 173.59034,477.93922 C 171.05909,482.00611 164.53297,489.07984 161.22901,493.15162 C 159.16505,495.69508 157.00318,498.28932 155.06714,500.92799 C 153.16626,503.51832 151.55127,506.34205 149.64966,508.9319 C 147.73853,511.53493 145.31665,513.94801 143.54004,516.62721 C 141.73999,519.34157 140.40137,522.55299 138.74634,525.37575 C 135.71997,530.53688 132.1648,535.58132 128.36548,540.19899 C 123.53736,546.06715 118.01465,551.38991 112.5354,556.64088 L 107.8689,561.11256 C 105.22559,563.14332 101.85401,564.44459 99.1875,566.45289 C 94.33643,570.10719 82.46753,582.74293 79.15942,587.8108 C 77.40478,590.49928 75.99878,593.98756 74.52417,596.86891"
   style="fill:none;fill-rule:evenodd;stroke:#646464;stroke-width:5.66919994;stroke-linejoin:round;stroke-miterlimit:3.8636899"
   id="path54" />
			<path
   d="M 74.22144,597.02222 L 68.62183,599.28247 L 31.10913,612.85669 C 31.01953,612.8894 13.27685,619.45825 12.64136,619.55542 C 12.23609,619.61694 1.32959,618.42554 0.28125,618.32104"
   style="fill:none;fill-rule:evenodd;stroke:#646464;stroke-width:5.66919994;stroke-linejoin:round;stroke-miterlimit:3.8636899"
   id="path56" />
			<path
   d="M 74.22144,597.02222 C 160.87696,607.20972 247.4087,618.93872 333.91211,630.29273 C 389.73486,637.61988 445.53955,645.1565 501.35303,652.56812 L 508.83203,658.40845 C 511.08691,660.17115 512.1001,660.85913 512.89209,661.74439 C 513.66943,662.61304 514.23438,663.67164 515.55225,666.12085 L 527.49366,688.32056 C 527.64063,688.59351 527.81641,689.02076 528.00538,689.2566 L 539.46241,703.54859 C 540.72755,705.12671 541.47462,706.39039 542.33692,708.22632 L 548.77979,721.94556 C 548.92823,722.26148 550.07862,724.80005 550.18409,724.93335 C 552.48438,727.83228 557.59669,733.58472 559.34425,736.47827 C 559.62599,736.94409 562.542,745.00415 562.92726,746.03149 C 563.14894,746.62329 563.60011,747.49389 563.70265,748.09887 L 567.12648,768.32201 C 567.87746,772.75853 568.1758,777.97484 567.75734,782.4182 C 567.20705,788.26 565.35597,794.27367 565.05422,800.10521 C 565.00246,801.10082 566.64504,822.86351 566.96975,824.43382 C 567.02004,824.67698 570.68166,835.90501 570.6968,835.93333 C 570.97707,836.45677 577.19778,844.00315 577.96682,844.95823 C 579.93264,847.39817 582.88723,849.61204 585.20998,851.74973 C 586.23244,855.08567 588.61477,864.26047 589.88332,866.99241 C 589.95119,867.13889 595.96779,874.14817 596.64113,874.94065 L 619.10793,901.38645 L 616.81203,911.09104 C 731.2173,908.79807 845.63478,906.77317 960.05373,905.09885"
   style="fill:none;fill-rule:evenodd;stroke:#646464;stroke-width:5.66919994;stroke-linejoin:round;stroke-miterlimit:3.8636899"
   id="path58" />
			<path
   d="M 947.72021,0.85864 C 947.72021,0.85864 949.97021,6.35864 947.22021,11.60864 C 944.47021,16.85864 939.97021,24.35864 939.22021,25.85864 C 938.47021,27.35864 932.97021,37.10864 939.47021,45.60864 C 945.97021,54.10864 953.72021,62.60864 956.22021,65.60864 C 958.72021,68.60864 961.97021,77.60864 962.22021,83.85864 C 962.47021,90.10864 962.97021,99.35864 964.47021,104.10864 C 965.97021,108.85864 971.47021,118.10864 977.47021,121.60864 C 983.47021,125.10864 995.36767,128.73413 997.79394,128.92138 C 1000.2202,129.10863 1014.2202,131.35864 1015.9702,132.10864 C 1017.7202,132.85864 1029.7202,137.85864 1032.4702,140.60864"
   style="fill:none;fill-rule:evenodd;stroke:#646464;stroke-width:4.53539991;stroke-linejoin:round;stroke-miterlimit:3.8636899"
   id="path60" />
			<path
   d="M 657.30566,445.06323 C 657.30566,445.06323 658.72021,453.60864 658.72021,458.10864 C 658.72021,462.60864 659.22021,471.60864 660.22021,473.60864 C 661.22021,475.60864 665.22021,479.10864 670.72021,479.10864 C 676.22021,479.10864 755.72021,476.10864 755.72021,476.10864 L 751.22021,469.10864 C 751.22021,469.10864 749.22021,463.10864 752.22021,460.60864 C 755.22021,458.10864 761.25048,455.26391 761.25048,455.26391"
   style="fill:none;fill-rule:evenodd;stroke:#646464;stroke-width:1.70079994;stroke-linejoin:round;stroke-miterlimit:3.8636899"
   id="path62" />
			<path
   d="M 740.22021,477.10864 L 739.72021,495.10864 C 739.72021,495.10864 738.72021,507.10864 742.72021,512.10864 C 746.72021,517.10864 749.72021,523.60864 751.22021,525.60864 C 752.72021,527.60864 753.22021,531.60864 752.22021,534.10864 C 751.22021,536.60864 746.22021,545.10864 746.22021,545.10864"
   style="fill:none;fill-rule:evenodd;stroke:#646464;stroke-width:1.70079994;stroke-linejoin:round;stroke-miterlimit:3.8636899"
   id="path64" />
			<path
   d="M 654.72021,520.10864 L 695.22021,543.10864 L 746.22021,545.10864 C 746.22021,545.10864 756.72021,537.60864 761.22021,541.60864 C 765.72021,545.60864 774.72021,546.60864 780.22021,545.60864 C 785.72021,544.60864 801.72021,538.60864 801.72021,538.60864"
   style="fill:none;fill-rule:evenodd;stroke:#646464;stroke-width:1.70079994;stroke-linejoin:round;stroke-miterlimit:3.8636899"
   id="path66" />
			<path
   d="M 739.72021,495.10864 C 739.72021,495.10864 774.72021,495.10864 776.72021,495.10864 C 778.72021,495.10864 783.22021,493.10864 785.22021,491.10864 C 787.22021,489.10864 792.22021,484.60864 792.22021,484.60864"
   style="fill:none;fill-rule:evenodd;stroke:#646464;stroke-width:1.70079994;stroke-linejoin:round;stroke-miterlimit:3.8636899"
   id="path68" />
			<path
   d="M 553.72021,728.60864 C 553.72021,728.60864 564.72021,721.60864 566.72021,719.10864 C 568.72021,716.60864 576.22021,708.10864 577.72021,704.10864 C 579.22021,700.10864 580.22021,694.60864 580.22021,694.60864 C 580.22021,694.60864 583.72021,659.60864 583.72021,657.10864 C 583.72021,654.60864 588.22021,645.10864 591.22021,642.10864 C 594.22021,639.10864 601.22021,631.60864 605.72021,628.60864 C 610.22021,625.60864 619.22021,616.60864 621.22021,614.60864 C 623.22021,612.60864 639.22021,602.10864 639.22021,602.10864 L 643.72021,540.10864 L 654.72021,520.10864 C 654.72021,520.10864 655.22021,512.10864 662.72021,511.60864 C 670.22021,511.10864 675.72021,509.10864 678.22021,505.60864 C 680.72021,502.10864 682.72021,499.60864 682.72021,494.60864 C 682.72021,489.60864 682.22021,479.10864 682.22021,479.10864"
   style="fill:none;fill-rule:evenodd;stroke:#646464;stroke-width:1.70079994;stroke-linejoin:round;stroke-miterlimit:3.8636899"
   id="path70" />
		</g>
	</svg>